%TF.GenerationSoftware,KiCad,Pcbnew,8.0.3*%
%TF.CreationDate,2024-07-23T13:34:38+02:00*%
%TF.ProjectId,TinyLDOP,54696e79-4c44-44f5-902e-6b696361645f,rev?*%
%TF.SameCoordinates,Original*%
%TF.FileFunction,Legend,Bot*%
%TF.FilePolarity,Positive*%
%FSLAX46Y46*%
G04 Gerber Fmt 4.6, Leading zero omitted, Abs format (unit mm)*
G04 Created by KiCad (PCBNEW 8.0.3) date 2024-07-23 13:34:38*
%MOMM*%
%LPD*%
G01*
G04 APERTURE LIST*
%ADD10C,0.120000*%
G04 APERTURE END LIST*
D10*
%TO.C,J4*%
X79950000Y-77470000D02*
X82610000Y-77470000D01*
X79950000Y-77530000D02*
X79950000Y-77470000D01*
X79950000Y-77530000D02*
X82610000Y-77530000D01*
X81280000Y-74870000D02*
X82610000Y-74870000D01*
X82610000Y-74870000D02*
X82610000Y-76200000D01*
X82610000Y-77530000D02*
X82610000Y-77470000D01*
%TO.C,J2*%
X79950000Y-62230000D02*
X82610000Y-62230000D01*
X79950000Y-62290000D02*
X79950000Y-62230000D01*
X79950000Y-62290000D02*
X82610000Y-62290000D01*
X81280000Y-59630000D02*
X82610000Y-59630000D01*
X82610000Y-59630000D02*
X82610000Y-60960000D01*
X82610000Y-62290000D02*
X82610000Y-62230000D01*
%TO.C,J1*%
X67250000Y-62230000D02*
X69910000Y-62230000D01*
X67250000Y-62290000D02*
X67250000Y-62230000D01*
X67250000Y-62290000D02*
X69910000Y-62290000D01*
X68580000Y-59630000D02*
X69910000Y-59630000D01*
X69910000Y-59630000D02*
X69910000Y-60960000D01*
X69910000Y-62290000D02*
X69910000Y-62230000D01*
%TO.C,J3*%
X67250000Y-77470000D02*
X69910000Y-77470000D01*
X67250000Y-77530000D02*
X67250000Y-77470000D01*
X67250000Y-77530000D02*
X69910000Y-77530000D01*
X68580000Y-74870000D02*
X69910000Y-74870000D01*
X69910000Y-74870000D02*
X69910000Y-76200000D01*
X69910000Y-77530000D02*
X69910000Y-77470000D01*
%TD*%
M02*
