%TF.GenerationSoftware,KiCad,Pcbnew,8.0.3*%
%TF.CreationDate,2024-07-23T13:34:38+02:00*%
%TF.ProjectId,TinyLDOP,54696e79-4c44-44f5-902e-6b696361645f,rev?*%
%TF.SameCoordinates,Original*%
%TF.FileFunction,Legend,Top*%
%TF.FilePolarity,Positive*%
%FSLAX46Y46*%
G04 Gerber Fmt 4.6, Leading zero omitted, Abs format (unit mm)*
G04 Created by KiCad (PCBNEW 8.0.3) date 2024-07-23 13:34:38*
%MOMM*%
%LPD*%
G01*
G04 APERTURE LIST*
%ADD10C,0.150000*%
%ADD11C,0.120000*%
G04 APERTURE END LIST*
D10*
G36*
X71668447Y-77157941D02*
G01*
X71630709Y-77274537D01*
X71557919Y-77348745D01*
X71482783Y-77387437D01*
X71309353Y-77432055D01*
X71184581Y-77433197D01*
X71011458Y-77391171D01*
X70931648Y-77352446D01*
X70855923Y-77278168D01*
X70817130Y-77165090D01*
X70816249Y-77010483D01*
X71667600Y-77009274D01*
X71668447Y-77157941D01*
G37*
G36*
X71928291Y-77693128D02*
G01*
X70556069Y-77693128D01*
X70556069Y-76935589D01*
X70667180Y-76935589D01*
X70668529Y-77172354D01*
X70667769Y-77183065D01*
X70668612Y-77186773D01*
X70668621Y-77188316D01*
X70669379Y-77190146D01*
X70671029Y-77197402D01*
X70716241Y-77329192D01*
X70716241Y-77331172D01*
X70720194Y-77340715D01*
X70724643Y-77353684D01*
X70726409Y-77355720D01*
X70727440Y-77358209D01*
X70736767Y-77369574D01*
X70832534Y-77463511D01*
X70839054Y-77471029D01*
X70842247Y-77473039D01*
X70843370Y-77474140D01*
X70845202Y-77474898D01*
X70851497Y-77478861D01*
X70942729Y-77523129D01*
X70948240Y-77527212D01*
X70959255Y-77531147D01*
X70960466Y-77531735D01*
X70961006Y-77531773D01*
X70962086Y-77532159D01*
X71148451Y-77577399D01*
X71156120Y-77580576D01*
X71165234Y-77581473D01*
X71167106Y-77581928D01*
X71168198Y-77581765D01*
X71170752Y-77582017D01*
X71309331Y-77580749D01*
X71317255Y-77581928D01*
X71326279Y-77580593D01*
X71328241Y-77580576D01*
X71329262Y-77580153D01*
X71331799Y-77579778D01*
X71516497Y-77532260D01*
X71523894Y-77531735D01*
X71534876Y-77527532D01*
X71536121Y-77527212D01*
X71536556Y-77526889D01*
X71537626Y-77526480D01*
X71632182Y-77477787D01*
X71640991Y-77474139D01*
X71643893Y-77471756D01*
X71645307Y-77471029D01*
X71646606Y-77469530D01*
X71652356Y-77464812D01*
X71738840Y-77376642D01*
X71740544Y-77375791D01*
X71747173Y-77368147D01*
X71756922Y-77358209D01*
X71757953Y-77355718D01*
X71759718Y-77353684D01*
X71765712Y-77340258D01*
X71811861Y-77197676D01*
X71815739Y-77188316D01*
X71816109Y-77184552D01*
X71816591Y-77183065D01*
X71816450Y-77181090D01*
X71817180Y-77173684D01*
X71815739Y-76920957D01*
X71804540Y-76893921D01*
X71783848Y-76873229D01*
X71756812Y-76862030D01*
X71742180Y-76860589D01*
X70727548Y-76862030D01*
X70700512Y-76873229D01*
X70679820Y-76893921D01*
X70668621Y-76920957D01*
X70667180Y-76935589D01*
X70556069Y-76935589D01*
X70556069Y-76454159D01*
X70667363Y-76454159D01*
X70668621Y-76464055D01*
X70668621Y-76474030D01*
X70670450Y-76478445D01*
X70671053Y-76483189D01*
X70676003Y-76491853D01*
X70679820Y-76501066D01*
X70683198Y-76504444D01*
X70685572Y-76508598D01*
X70693461Y-76514707D01*
X70700512Y-76521758D01*
X70704928Y-76523587D01*
X70708709Y-76526515D01*
X70718332Y-76529139D01*
X70727548Y-76532957D01*
X70735030Y-76533693D01*
X70736941Y-76534215D01*
X70738416Y-76534027D01*
X70742180Y-76534398D01*
X71756812Y-76532957D01*
X71783848Y-76521758D01*
X71804540Y-76501066D01*
X71815739Y-76474030D01*
X71815739Y-76444766D01*
X71804540Y-76417730D01*
X71783848Y-76397038D01*
X71756812Y-76385839D01*
X71742180Y-76384398D01*
X71022110Y-76385420D01*
X71774809Y-75954073D01*
X71783848Y-75950330D01*
X71787210Y-75946967D01*
X71791380Y-75944578D01*
X71797488Y-75936689D01*
X71804540Y-75929638D01*
X71806370Y-75925219D01*
X71809297Y-75921440D01*
X71811921Y-75911818D01*
X71815739Y-75902602D01*
X71815739Y-75897821D01*
X71816997Y-75893209D01*
X71815739Y-75883312D01*
X71815739Y-75873338D01*
X71813909Y-75868922D01*
X71813307Y-75864179D01*
X71808356Y-75855514D01*
X71804540Y-75846302D01*
X71801161Y-75842923D01*
X71798788Y-75838770D01*
X71790898Y-75832660D01*
X71783848Y-75825610D01*
X71779431Y-75823780D01*
X71775651Y-75820853D01*
X71766027Y-75818228D01*
X71756812Y-75814411D01*
X71749329Y-75813674D01*
X71747419Y-75813153D01*
X71745943Y-75813340D01*
X71742180Y-75812970D01*
X70727548Y-75814411D01*
X70700512Y-75825610D01*
X70679820Y-75846302D01*
X70668621Y-75873338D01*
X70668621Y-75902602D01*
X70679820Y-75929638D01*
X70700512Y-75950330D01*
X70727548Y-75961529D01*
X70742180Y-75962970D01*
X71462249Y-75961947D01*
X70709550Y-76393294D01*
X70700512Y-76397038D01*
X70697149Y-76400400D01*
X70692980Y-76402790D01*
X70686870Y-76410679D01*
X70679820Y-76417730D01*
X70677990Y-76422146D01*
X70675063Y-76425927D01*
X70672438Y-76435550D01*
X70668621Y-76444766D01*
X70668621Y-76449546D01*
X70667363Y-76454159D01*
X70556069Y-76454159D01*
X70556069Y-75173684D01*
X70667180Y-75173684D01*
X70668430Y-75268998D01*
X70667769Y-75278303D01*
X70668600Y-75281957D01*
X70668621Y-75283554D01*
X70669379Y-75285384D01*
X70671029Y-75292640D01*
X70716241Y-75424430D01*
X70716241Y-75426410D01*
X70720194Y-75435953D01*
X70724643Y-75448922D01*
X70726409Y-75450958D01*
X70727440Y-75453447D01*
X70736767Y-75464812D01*
X70795751Y-75521758D01*
X70822787Y-75532957D01*
X70837419Y-75534398D01*
X71185384Y-75532957D01*
X71212420Y-75521758D01*
X71233112Y-75501066D01*
X71244311Y-75474030D01*
X71244311Y-75474029D01*
X71245752Y-75459398D01*
X71244311Y-75254290D01*
X71233112Y-75227254D01*
X71212420Y-75206562D01*
X71185384Y-75195363D01*
X71156120Y-75195363D01*
X71129084Y-75206562D01*
X71108392Y-75227254D01*
X71097193Y-75254290D01*
X71095752Y-75268922D01*
X71096565Y-75384705D01*
X70868993Y-75385647D01*
X70855729Y-75372842D01*
X70817064Y-75260135D01*
X70816128Y-75188758D01*
X70853651Y-75072830D01*
X70926442Y-74998621D01*
X71001577Y-74959930D01*
X71175007Y-74915312D01*
X71299779Y-74914170D01*
X71472902Y-74956196D01*
X71552712Y-74994921D01*
X71628437Y-75069200D01*
X71667259Y-75182365D01*
X71668308Y-75296993D01*
X71622224Y-75391970D01*
X71620150Y-75421160D01*
X71629404Y-75448921D01*
X71648577Y-75471029D01*
X71674752Y-75484116D01*
X71703942Y-75486190D01*
X71731703Y-75476936D01*
X71753811Y-75457763D01*
X71761643Y-75445320D01*
X71803318Y-75359430D01*
X71804540Y-75358209D01*
X71808209Y-75349349D01*
X71814517Y-75336351D01*
X71814708Y-75333661D01*
X71815739Y-75331173D01*
X71817180Y-75316541D01*
X71815878Y-75174322D01*
X71816591Y-75164303D01*
X71815753Y-75160619D01*
X71815739Y-75159052D01*
X71814980Y-75157221D01*
X71813331Y-75149966D01*
X71768120Y-75018175D01*
X71768120Y-75016196D01*
X71764164Y-75006646D01*
X71759718Y-74993684D01*
X71757953Y-74991649D01*
X71756922Y-74989159D01*
X71747594Y-74977794D01*
X71651831Y-74883862D01*
X71645307Y-74876339D01*
X71642110Y-74874326D01*
X71640991Y-74873229D01*
X71639163Y-74872471D01*
X71632864Y-74868507D01*
X71541632Y-74824240D01*
X71536121Y-74820156D01*
X71525101Y-74816218D01*
X71523894Y-74815633D01*
X71523354Y-74815594D01*
X71522275Y-74815209D01*
X71335909Y-74769968D01*
X71328241Y-74766792D01*
X71319126Y-74765894D01*
X71317255Y-74765440D01*
X71316162Y-74765602D01*
X71313609Y-74765351D01*
X71175029Y-74766618D01*
X71167106Y-74765440D01*
X71158081Y-74766774D01*
X71156120Y-74766792D01*
X71155098Y-74767214D01*
X71152562Y-74767590D01*
X70967863Y-74815107D01*
X70960466Y-74815633D01*
X70949483Y-74819836D01*
X70948240Y-74820156D01*
X70947804Y-74820478D01*
X70946735Y-74820888D01*
X70852185Y-74869576D01*
X70843370Y-74873228D01*
X70840464Y-74875612D01*
X70839054Y-74876339D01*
X70837755Y-74877835D01*
X70832005Y-74882556D01*
X70745522Y-74970724D01*
X70743817Y-74971577D01*
X70737180Y-74979228D01*
X70727440Y-74989159D01*
X70726409Y-74991647D01*
X70724643Y-74993684D01*
X70718649Y-75007109D01*
X70672498Y-75149691D01*
X70668621Y-75159052D01*
X70668250Y-75162815D01*
X70667769Y-75164303D01*
X70667909Y-75166278D01*
X70667180Y-75173684D01*
X70556069Y-75173684D01*
X70556069Y-74654240D01*
X71928291Y-74654240D01*
X71928291Y-77693128D01*
G37*
G36*
X79034447Y-77157941D02*
G01*
X78996709Y-77274537D01*
X78923919Y-77348745D01*
X78848783Y-77387437D01*
X78675353Y-77432055D01*
X78550581Y-77433197D01*
X78377458Y-77391171D01*
X78297648Y-77352446D01*
X78221923Y-77278168D01*
X78183130Y-77165090D01*
X78182249Y-77010483D01*
X79033600Y-77009274D01*
X79034447Y-77157941D01*
G37*
G36*
X79294291Y-77693128D02*
G01*
X77922069Y-77693128D01*
X77922069Y-76935589D01*
X78033180Y-76935589D01*
X78034529Y-77172354D01*
X78033769Y-77183065D01*
X78034612Y-77186773D01*
X78034621Y-77188316D01*
X78035379Y-77190146D01*
X78037029Y-77197402D01*
X78082241Y-77329192D01*
X78082241Y-77331172D01*
X78086194Y-77340715D01*
X78090643Y-77353684D01*
X78092409Y-77355720D01*
X78093440Y-77358209D01*
X78102767Y-77369574D01*
X78198534Y-77463511D01*
X78205054Y-77471029D01*
X78208247Y-77473039D01*
X78209370Y-77474140D01*
X78211202Y-77474898D01*
X78217497Y-77478861D01*
X78308729Y-77523129D01*
X78314240Y-77527212D01*
X78325255Y-77531147D01*
X78326466Y-77531735D01*
X78327006Y-77531773D01*
X78328086Y-77532159D01*
X78514451Y-77577399D01*
X78522120Y-77580576D01*
X78531234Y-77581473D01*
X78533106Y-77581928D01*
X78534198Y-77581765D01*
X78536752Y-77582017D01*
X78675331Y-77580749D01*
X78683255Y-77581928D01*
X78692279Y-77580593D01*
X78694241Y-77580576D01*
X78695262Y-77580153D01*
X78697799Y-77579778D01*
X78882497Y-77532260D01*
X78889894Y-77531735D01*
X78900876Y-77527532D01*
X78902121Y-77527212D01*
X78902556Y-77526889D01*
X78903626Y-77526480D01*
X78998182Y-77477787D01*
X79006991Y-77474139D01*
X79009893Y-77471756D01*
X79011307Y-77471029D01*
X79012606Y-77469530D01*
X79018356Y-77464812D01*
X79104840Y-77376642D01*
X79106544Y-77375791D01*
X79113173Y-77368147D01*
X79122922Y-77358209D01*
X79123953Y-77355718D01*
X79125718Y-77353684D01*
X79131712Y-77340258D01*
X79177861Y-77197676D01*
X79181739Y-77188316D01*
X79182109Y-77184552D01*
X79182591Y-77183065D01*
X79182450Y-77181090D01*
X79183180Y-77173684D01*
X79181739Y-76920957D01*
X79170540Y-76893921D01*
X79149848Y-76873229D01*
X79122812Y-76862030D01*
X79108180Y-76860589D01*
X78093548Y-76862030D01*
X78066512Y-76873229D01*
X78045820Y-76893921D01*
X78034621Y-76920957D01*
X78033180Y-76935589D01*
X77922069Y-76935589D01*
X77922069Y-76454159D01*
X78033363Y-76454159D01*
X78034621Y-76464055D01*
X78034621Y-76474030D01*
X78036450Y-76478445D01*
X78037053Y-76483189D01*
X78042003Y-76491853D01*
X78045820Y-76501066D01*
X78049198Y-76504444D01*
X78051572Y-76508598D01*
X78059461Y-76514707D01*
X78066512Y-76521758D01*
X78070928Y-76523587D01*
X78074709Y-76526515D01*
X78084332Y-76529139D01*
X78093548Y-76532957D01*
X78101030Y-76533693D01*
X78102941Y-76534215D01*
X78104416Y-76534027D01*
X78108180Y-76534398D01*
X79122812Y-76532957D01*
X79149848Y-76521758D01*
X79170540Y-76501066D01*
X79181739Y-76474030D01*
X79181739Y-76444766D01*
X79170540Y-76417730D01*
X79149848Y-76397038D01*
X79122812Y-76385839D01*
X79108180Y-76384398D01*
X78388110Y-76385420D01*
X79140809Y-75954073D01*
X79149848Y-75950330D01*
X79153210Y-75946967D01*
X79157380Y-75944578D01*
X79163488Y-75936689D01*
X79170540Y-75929638D01*
X79172370Y-75925219D01*
X79175297Y-75921440D01*
X79177921Y-75911818D01*
X79181739Y-75902602D01*
X79181739Y-75897821D01*
X79182997Y-75893209D01*
X79181739Y-75883312D01*
X79181739Y-75873338D01*
X79179909Y-75868922D01*
X79179307Y-75864179D01*
X79174356Y-75855514D01*
X79170540Y-75846302D01*
X79167161Y-75842923D01*
X79164788Y-75838770D01*
X79156898Y-75832660D01*
X79149848Y-75825610D01*
X79145431Y-75823780D01*
X79141651Y-75820853D01*
X79132027Y-75818228D01*
X79122812Y-75814411D01*
X79115329Y-75813674D01*
X79113419Y-75813153D01*
X79111943Y-75813340D01*
X79108180Y-75812970D01*
X78093548Y-75814411D01*
X78066512Y-75825610D01*
X78045820Y-75846302D01*
X78034621Y-75873338D01*
X78034621Y-75902602D01*
X78045820Y-75929638D01*
X78066512Y-75950330D01*
X78093548Y-75961529D01*
X78108180Y-75962970D01*
X78828249Y-75961947D01*
X78075550Y-76393294D01*
X78066512Y-76397038D01*
X78063149Y-76400400D01*
X78058980Y-76402790D01*
X78052870Y-76410679D01*
X78045820Y-76417730D01*
X78043990Y-76422146D01*
X78041063Y-76425927D01*
X78038438Y-76435550D01*
X78034621Y-76444766D01*
X78034621Y-76449546D01*
X78033363Y-76454159D01*
X77922069Y-76454159D01*
X77922069Y-75173684D01*
X78033180Y-75173684D01*
X78034430Y-75268998D01*
X78033769Y-75278303D01*
X78034600Y-75281957D01*
X78034621Y-75283554D01*
X78035379Y-75285384D01*
X78037029Y-75292640D01*
X78082241Y-75424430D01*
X78082241Y-75426410D01*
X78086194Y-75435953D01*
X78090643Y-75448922D01*
X78092409Y-75450958D01*
X78093440Y-75453447D01*
X78102767Y-75464812D01*
X78161751Y-75521758D01*
X78188787Y-75532957D01*
X78203419Y-75534398D01*
X78551384Y-75532957D01*
X78578420Y-75521758D01*
X78599112Y-75501066D01*
X78610311Y-75474030D01*
X78610311Y-75474029D01*
X78611752Y-75459398D01*
X78610311Y-75254290D01*
X78599112Y-75227254D01*
X78578420Y-75206562D01*
X78551384Y-75195363D01*
X78522120Y-75195363D01*
X78495084Y-75206562D01*
X78474392Y-75227254D01*
X78463193Y-75254290D01*
X78461752Y-75268922D01*
X78462565Y-75384705D01*
X78234993Y-75385647D01*
X78221729Y-75372842D01*
X78183064Y-75260135D01*
X78182128Y-75188758D01*
X78219651Y-75072830D01*
X78292442Y-74998621D01*
X78367577Y-74959930D01*
X78541007Y-74915312D01*
X78665779Y-74914170D01*
X78838902Y-74956196D01*
X78918712Y-74994921D01*
X78994437Y-75069200D01*
X79033259Y-75182365D01*
X79034308Y-75296993D01*
X78988224Y-75391970D01*
X78986150Y-75421160D01*
X78995404Y-75448921D01*
X79014577Y-75471029D01*
X79040752Y-75484116D01*
X79069942Y-75486190D01*
X79097703Y-75476936D01*
X79119811Y-75457763D01*
X79127643Y-75445320D01*
X79169318Y-75359430D01*
X79170540Y-75358209D01*
X79174209Y-75349349D01*
X79180517Y-75336351D01*
X79180708Y-75333661D01*
X79181739Y-75331173D01*
X79183180Y-75316541D01*
X79181878Y-75174322D01*
X79182591Y-75164303D01*
X79181753Y-75160619D01*
X79181739Y-75159052D01*
X79180980Y-75157221D01*
X79179331Y-75149966D01*
X79134120Y-75018175D01*
X79134120Y-75016196D01*
X79130164Y-75006646D01*
X79125718Y-74993684D01*
X79123953Y-74991649D01*
X79122922Y-74989159D01*
X79113594Y-74977794D01*
X79017831Y-74883862D01*
X79011307Y-74876339D01*
X79008110Y-74874326D01*
X79006991Y-74873229D01*
X79005163Y-74872471D01*
X78998864Y-74868507D01*
X78907632Y-74824240D01*
X78902121Y-74820156D01*
X78891101Y-74816218D01*
X78889894Y-74815633D01*
X78889354Y-74815594D01*
X78888275Y-74815209D01*
X78701909Y-74769968D01*
X78694241Y-74766792D01*
X78685126Y-74765894D01*
X78683255Y-74765440D01*
X78682162Y-74765602D01*
X78679609Y-74765351D01*
X78541029Y-74766618D01*
X78533106Y-74765440D01*
X78524081Y-74766774D01*
X78522120Y-74766792D01*
X78521098Y-74767214D01*
X78518562Y-74767590D01*
X78333863Y-74815107D01*
X78326466Y-74815633D01*
X78315483Y-74819836D01*
X78314240Y-74820156D01*
X78313804Y-74820478D01*
X78312735Y-74820888D01*
X78218185Y-74869576D01*
X78209370Y-74873228D01*
X78206464Y-74875612D01*
X78205054Y-74876339D01*
X78203755Y-74877835D01*
X78198005Y-74882556D01*
X78111522Y-74970724D01*
X78109817Y-74971577D01*
X78103180Y-74979228D01*
X78093440Y-74989159D01*
X78092409Y-74991647D01*
X78090643Y-74993684D01*
X78084649Y-75007109D01*
X78038498Y-75149691D01*
X78034621Y-75159052D01*
X78034250Y-75162815D01*
X78033769Y-75164303D01*
X78033909Y-75166278D01*
X78033180Y-75173684D01*
X77922069Y-75173684D01*
X77922069Y-74654240D01*
X79294291Y-74654240D01*
X79294291Y-77693128D01*
G37*
G36*
X71267205Y-60469307D02*
G01*
X71298532Y-60499551D01*
X71333990Y-60568408D01*
X71334975Y-60676040D01*
X71301795Y-60744421D01*
X71271550Y-60775749D01*
X71202827Y-60811138D01*
X70952508Y-60812339D01*
X70883823Y-60779012D01*
X70852495Y-60748766D01*
X70817036Y-60679911D01*
X70816051Y-60572280D01*
X70849232Y-60503897D01*
X70879477Y-60472569D01*
X70948200Y-60437180D01*
X71198519Y-60435979D01*
X71267205Y-60469307D01*
G37*
G36*
X71927702Y-62642163D02*
G01*
X70556069Y-62642163D01*
X70556069Y-62362255D01*
X70667180Y-62362255D01*
X70668621Y-62472125D01*
X70679820Y-62499161D01*
X70700512Y-62519853D01*
X70727548Y-62531052D01*
X70756812Y-62531052D01*
X70783848Y-62519853D01*
X70804540Y-62499161D01*
X70815739Y-62472125D01*
X70817180Y-62457493D01*
X70816183Y-62381532D01*
X70844481Y-62323212D01*
X70900486Y-62294372D01*
X71334637Y-62293654D01*
X71335288Y-62472125D01*
X71346487Y-62499161D01*
X71367179Y-62519853D01*
X71394215Y-62531052D01*
X71423479Y-62531052D01*
X71450515Y-62519853D01*
X71471207Y-62499161D01*
X71482406Y-62472125D01*
X71483847Y-62457493D01*
X71483249Y-62293409D01*
X71756812Y-62292957D01*
X71783848Y-62281758D01*
X71804540Y-62261066D01*
X71815739Y-62234030D01*
X71815739Y-62204766D01*
X71804540Y-62177730D01*
X71783848Y-62157038D01*
X71756812Y-62145839D01*
X71742180Y-62144398D01*
X71482708Y-62144826D01*
X71482406Y-62061909D01*
X71471207Y-62034873D01*
X71450515Y-62014181D01*
X71423479Y-62002982D01*
X71394215Y-62002982D01*
X71367179Y-62014181D01*
X71346487Y-62034873D01*
X71335288Y-62061909D01*
X71333847Y-62076541D01*
X71334096Y-62145072D01*
X70896842Y-62145795D01*
X70894418Y-62144987D01*
X70882713Y-62145818D01*
X70870406Y-62145839D01*
X70867917Y-62146869D01*
X70865228Y-62147061D01*
X70851497Y-62152316D01*
X70760114Y-62199374D01*
X70752659Y-62201859D01*
X70748814Y-62205192D01*
X70743816Y-62207767D01*
X70737655Y-62214871D01*
X70730551Y-62221032D01*
X70725887Y-62228439D01*
X70724643Y-62229875D01*
X70724258Y-62231027D01*
X70722718Y-62233475D01*
X70681041Y-62319365D01*
X70679820Y-62320587D01*
X70676149Y-62329446D01*
X70669843Y-62342445D01*
X70669651Y-62345134D01*
X70668621Y-62347623D01*
X70667180Y-62362255D01*
X70556069Y-62362255D01*
X70556069Y-61457493D01*
X70667180Y-61457493D01*
X70668384Y-61589123D01*
X70667769Y-61590970D01*
X70668494Y-61601184D01*
X70668621Y-61614982D01*
X70669651Y-61617470D01*
X70669843Y-61620160D01*
X70675098Y-61633892D01*
X70699697Y-61681661D01*
X70679820Y-61701539D01*
X70668621Y-61728575D01*
X70668621Y-61757839D01*
X70679820Y-61784875D01*
X70700512Y-61805567D01*
X70727548Y-61816766D01*
X70742180Y-61818207D01*
X71423479Y-61816766D01*
X71450515Y-61805567D01*
X71471207Y-61784875D01*
X71482406Y-61757839D01*
X71482406Y-61728575D01*
X71471207Y-61701539D01*
X71450515Y-61680847D01*
X71423479Y-61669648D01*
X71408847Y-61668207D01*
X70868881Y-61669349D01*
X70852495Y-61653528D01*
X70817036Y-61584673D01*
X70816051Y-61477042D01*
X70844481Y-61418450D01*
X70900517Y-61389594D01*
X71423479Y-61388195D01*
X71450515Y-61376996D01*
X71471207Y-61356304D01*
X71482406Y-61329268D01*
X71482406Y-61300004D01*
X71471207Y-61272968D01*
X71450515Y-61252276D01*
X71423479Y-61241077D01*
X71408847Y-61239636D01*
X70896762Y-61241006D01*
X70894418Y-61240225D01*
X70882897Y-61241043D01*
X70870406Y-61241077D01*
X70867917Y-61242107D01*
X70865228Y-61242299D01*
X70851497Y-61247554D01*
X70760114Y-61294612D01*
X70752659Y-61297097D01*
X70748814Y-61300430D01*
X70743816Y-61303005D01*
X70737655Y-61310109D01*
X70730551Y-61316270D01*
X70725887Y-61323677D01*
X70724643Y-61325113D01*
X70724258Y-61326265D01*
X70722718Y-61328713D01*
X70681041Y-61414603D01*
X70679820Y-61415825D01*
X70676149Y-61424684D01*
X70669843Y-61437683D01*
X70669651Y-61440372D01*
X70668621Y-61442861D01*
X70667180Y-61457493D01*
X70556069Y-61457493D01*
X70556069Y-60552731D01*
X70667180Y-60552731D01*
X70668384Y-60684361D01*
X70667769Y-60686208D01*
X70668494Y-60696422D01*
X70668621Y-60710220D01*
X70669651Y-60712708D01*
X70669843Y-60715398D01*
X70675098Y-60729130D01*
X70723790Y-60823682D01*
X70727440Y-60832494D01*
X70729823Y-60835398D01*
X70730551Y-60836811D01*
X70732049Y-60838110D01*
X70736767Y-60843859D01*
X70785802Y-60891200D01*
X70791435Y-60897695D01*
X70794580Y-60899674D01*
X70795751Y-60900805D01*
X70797578Y-60901562D01*
X70803878Y-60905527D01*
X70889767Y-60947202D01*
X70890989Y-60948424D01*
X70899848Y-60952093D01*
X70912847Y-60958401D01*
X70915536Y-60958592D01*
X70918025Y-60959623D01*
X70932657Y-60961064D01*
X71206811Y-60959748D01*
X71208990Y-60960475D01*
X71220110Y-60959684D01*
X71233003Y-60959623D01*
X71235492Y-60958591D01*
X71238180Y-60958401D01*
X71251912Y-60953146D01*
X71346468Y-60904453D01*
X71355277Y-60900805D01*
X71358179Y-60898422D01*
X71359593Y-60897695D01*
X71360892Y-60896196D01*
X71366642Y-60891478D01*
X71413983Y-60842442D01*
X71420478Y-60836810D01*
X71422457Y-60833664D01*
X71423588Y-60832494D01*
X71424345Y-60830666D01*
X71428310Y-60824367D01*
X71469985Y-60738477D01*
X71471207Y-60737256D01*
X71474876Y-60728396D01*
X71481184Y-60715398D01*
X71481375Y-60712708D01*
X71482406Y-60710220D01*
X71483847Y-60695588D01*
X71482642Y-60563957D01*
X71483258Y-60562111D01*
X71482532Y-60551896D01*
X71482406Y-60538099D01*
X71481375Y-60535610D01*
X71481184Y-60532921D01*
X71475929Y-60519190D01*
X71427237Y-60424635D01*
X71423588Y-60415825D01*
X71421205Y-60412922D01*
X71420478Y-60411509D01*
X71418979Y-60410209D01*
X71414261Y-60404460D01*
X71365225Y-60357118D01*
X71359593Y-60350624D01*
X71356447Y-60348644D01*
X71355277Y-60347514D01*
X71353449Y-60346756D01*
X71347150Y-60342792D01*
X71261261Y-60301117D01*
X71260039Y-60299895D01*
X71251173Y-60296222D01*
X71238180Y-60289918D01*
X71235492Y-60289727D01*
X71233003Y-60288696D01*
X71218371Y-60287255D01*
X70944216Y-60288570D01*
X70942037Y-60287844D01*
X70930916Y-60288634D01*
X70918025Y-60288696D01*
X70915536Y-60289726D01*
X70912847Y-60289918D01*
X70899116Y-60295173D01*
X70804561Y-60343864D01*
X70795751Y-60347514D01*
X70792848Y-60349896D01*
X70791435Y-60350624D01*
X70790135Y-60352122D01*
X70784386Y-60356841D01*
X70737045Y-60405875D01*
X70730551Y-60411508D01*
X70728570Y-60414653D01*
X70727440Y-60415825D01*
X70726683Y-60417652D01*
X70722718Y-60423951D01*
X70681041Y-60509841D01*
X70679820Y-60511063D01*
X70676149Y-60519922D01*
X70669843Y-60532921D01*
X70669651Y-60535610D01*
X70668621Y-60538099D01*
X70667180Y-60552731D01*
X70556069Y-60552731D01*
X70556069Y-59733827D01*
X70667769Y-59733827D01*
X70668435Y-59743207D01*
X70667769Y-59752587D01*
X70669464Y-59757672D01*
X70669844Y-59763017D01*
X70674048Y-59771426D01*
X70677023Y-59780350D01*
X70680534Y-59784398D01*
X70682930Y-59789190D01*
X70690034Y-59795352D01*
X70696197Y-59802457D01*
X70700988Y-59804852D01*
X70705037Y-59808364D01*
X70718463Y-59814358D01*
X71732799Y-60150951D01*
X71761989Y-60148876D01*
X71788163Y-60135790D01*
X71807337Y-60113682D01*
X71816591Y-60085920D01*
X71814516Y-60056730D01*
X71801429Y-60030557D01*
X71779322Y-60011383D01*
X71765897Y-60005389D01*
X70977103Y-59743639D01*
X71779322Y-59475031D01*
X71801429Y-59455857D01*
X71814516Y-59429684D01*
X71816591Y-59400494D01*
X71807337Y-59372732D01*
X71788163Y-59350624D01*
X71761989Y-59337538D01*
X71732799Y-59335463D01*
X71718463Y-59338723D01*
X70727584Y-59670500D01*
X70722370Y-59670871D01*
X70714041Y-59675034D01*
X70705037Y-59678050D01*
X70700988Y-59681561D01*
X70696197Y-59683957D01*
X70690034Y-59691061D01*
X70682930Y-59697224D01*
X70680534Y-59702015D01*
X70677023Y-59706064D01*
X70674048Y-59714987D01*
X70669844Y-59723397D01*
X70669464Y-59728741D01*
X70667769Y-59733827D01*
X70556069Y-59733827D01*
X70556069Y-59224352D01*
X71927702Y-59224352D01*
X71927702Y-62642163D01*
G37*
G36*
X79293702Y-62000747D02*
G01*
X77922658Y-62000747D01*
X77922658Y-61371433D01*
X78034621Y-61371433D01*
X78034621Y-61400697D01*
X78045820Y-61427733D01*
X78066512Y-61448425D01*
X78093548Y-61459624D01*
X78108180Y-61461065D01*
X78648146Y-61459922D01*
X78664532Y-61475742D01*
X78699990Y-61544599D01*
X78700975Y-61652231D01*
X78672546Y-61710821D01*
X78616510Y-61739677D01*
X78093548Y-61741077D01*
X78066512Y-61752276D01*
X78045820Y-61772968D01*
X78034621Y-61800004D01*
X78034621Y-61829268D01*
X78045820Y-61856304D01*
X78066512Y-61876996D01*
X78093548Y-61888195D01*
X78108180Y-61889636D01*
X78620264Y-61888265D01*
X78622609Y-61889047D01*
X78634129Y-61888228D01*
X78646622Y-61888195D01*
X78649111Y-61887163D01*
X78651799Y-61886973D01*
X78665531Y-61881718D01*
X78756915Y-61834658D01*
X78764370Y-61832174D01*
X78768212Y-61828841D01*
X78773212Y-61826267D01*
X78779373Y-61819162D01*
X78786478Y-61813001D01*
X78791139Y-61805595D01*
X78792385Y-61804159D01*
X78792769Y-61803005D01*
X78794310Y-61800558D01*
X78835985Y-61714668D01*
X78837207Y-61713447D01*
X78840876Y-61704587D01*
X78847184Y-61691589D01*
X78847375Y-61688899D01*
X78848406Y-61686411D01*
X78849847Y-61671779D01*
X78848642Y-61540148D01*
X78849258Y-61538302D01*
X78848532Y-61528087D01*
X78848406Y-61514290D01*
X78847375Y-61511801D01*
X78847184Y-61509112D01*
X78841929Y-61495381D01*
X78817329Y-61447610D01*
X78837207Y-61427733D01*
X78848406Y-61400697D01*
X78848406Y-61371433D01*
X78837207Y-61344397D01*
X78816515Y-61323705D01*
X78789479Y-61312506D01*
X78774847Y-61311065D01*
X78093548Y-61312506D01*
X78066512Y-61323705D01*
X78045820Y-61344397D01*
X78034621Y-61371433D01*
X77922658Y-61371433D01*
X77922658Y-60895243D01*
X78034621Y-60895243D01*
X78034621Y-60924507D01*
X78045820Y-60951543D01*
X78066512Y-60972235D01*
X78093548Y-60983434D01*
X78108180Y-60984875D01*
X78789479Y-60983434D01*
X78816515Y-60972235D01*
X78837207Y-60951543D01*
X78848406Y-60924507D01*
X78848406Y-60895244D01*
X78939383Y-60895244D01*
X78939383Y-60924506D01*
X78950582Y-60951543D01*
X78959909Y-60962908D01*
X79018893Y-61019854D01*
X79045929Y-61031053D01*
X79045930Y-61031053D01*
X79075192Y-61031053D01*
X79102229Y-61019854D01*
X79113594Y-61010527D01*
X79170540Y-60951543D01*
X79181739Y-60924507D01*
X79181739Y-60895244D01*
X79174136Y-60876888D01*
X79170540Y-60868207D01*
X79161213Y-60856842D01*
X79102229Y-60799896D01*
X79075192Y-60788697D01*
X79045929Y-60788697D01*
X79018893Y-60799896D01*
X79007528Y-60809223D01*
X78950582Y-60868207D01*
X78939383Y-60895244D01*
X78848406Y-60895244D01*
X78848406Y-60895243D01*
X78837207Y-60868207D01*
X78816515Y-60847515D01*
X78789479Y-60836316D01*
X78774847Y-60834875D01*
X78093548Y-60836316D01*
X78066512Y-60847515D01*
X78045820Y-60868207D01*
X78034621Y-60895243D01*
X77922658Y-60895243D01*
X77922658Y-60233828D01*
X78033769Y-60233828D01*
X78034435Y-60243208D01*
X78033769Y-60252588D01*
X78035464Y-60257673D01*
X78035844Y-60263018D01*
X78040048Y-60271427D01*
X78043023Y-60280351D01*
X78046534Y-60284399D01*
X78048930Y-60289191D01*
X78056034Y-60295353D01*
X78062197Y-60302458D01*
X78066988Y-60304853D01*
X78071037Y-60308365D01*
X78084463Y-60314359D01*
X79098799Y-60650952D01*
X79127989Y-60648877D01*
X79154163Y-60635791D01*
X79173337Y-60613683D01*
X79182591Y-60585921D01*
X79180516Y-60556731D01*
X79167429Y-60530558D01*
X79145322Y-60511384D01*
X79131897Y-60505390D01*
X78343103Y-60243640D01*
X79145322Y-59975032D01*
X79167429Y-59955858D01*
X79180516Y-59929685D01*
X79182591Y-59900495D01*
X79173337Y-59872733D01*
X79154163Y-59850625D01*
X79127989Y-59837539D01*
X79098799Y-59835464D01*
X79084463Y-59838724D01*
X78093584Y-60170501D01*
X78088370Y-60170872D01*
X78080041Y-60175035D01*
X78071037Y-60178051D01*
X78066988Y-60181562D01*
X78062197Y-60183958D01*
X78056034Y-60191062D01*
X78048930Y-60197225D01*
X78046534Y-60202016D01*
X78043023Y-60206065D01*
X78040048Y-60214988D01*
X78035844Y-60223398D01*
X78035464Y-60228742D01*
X78033769Y-60233828D01*
X77922658Y-60233828D01*
X77922658Y-59724353D01*
X79293702Y-59724353D01*
X79293702Y-62000747D01*
G37*
D11*
%TO.C,C2*%
X79920000Y-67169752D02*
X79920000Y-65747248D01*
X82640000Y-67169752D02*
X82640000Y-65747248D01*
%TO.C,C1*%
X67220000Y-67169752D02*
X67220000Y-65747248D01*
X69940000Y-67169752D02*
X69940000Y-65747248D01*
%TO.C,R1*%
X70385000Y-72162936D02*
X70385000Y-72617064D01*
X71855000Y-72162936D02*
X71855000Y-72617064D01*
%TO.C,RV1*%
X72565000Y-70835000D02*
X73210000Y-70835000D01*
X72565000Y-77785000D02*
X72565000Y-70835000D01*
X72565000Y-77785000D02*
X73210000Y-77785000D01*
X74200000Y-70835000D02*
X77305000Y-70835000D01*
X74200000Y-77785000D02*
X77305000Y-77785000D01*
X77305000Y-77785000D02*
X77305000Y-70835000D01*
%TO.C,U1*%
X73020000Y-63011000D02*
X73020000Y-64271000D01*
X73020000Y-69831000D02*
X73020000Y-68571000D01*
X76780000Y-63011000D02*
X73020000Y-63011000D01*
X76780000Y-69831000D02*
X73020000Y-69831000D01*
X78300000Y-70061000D02*
X77820000Y-70061000D01*
X78060000Y-69731000D01*
X78300000Y-70061000D01*
G36*
X78300000Y-70061000D02*
G01*
X77820000Y-70061000D01*
X78060000Y-69731000D01*
X78300000Y-70061000D01*
G37*
%TO.C,C3*%
X78005000Y-72617064D02*
X78005000Y-72162936D01*
X79475000Y-72617064D02*
X79475000Y-72162936D01*
%TD*%
M02*
