%TF.GenerationSoftware,KiCad,Pcbnew,8.0.3*%
%TF.CreationDate,2024-07-23T12:16:12+02:00*%
%TF.ProjectId,TinyLDOP,54696e79-4c44-44f5-902e-6b696361645f,rev?*%
%TF.SameCoordinates,Original*%
%TF.FileFunction,Copper,L2,Bot*%
%TF.FilePolarity,Positive*%
%FSLAX46Y46*%
G04 Gerber Fmt 4.6, Leading zero omitted, Abs format (unit mm)*
G04 Created by KiCad (PCBNEW 8.0.3) date 2024-07-23 12:16:12*
%MOMM*%
%LPD*%
G01*
G04 APERTURE LIST*
%TA.AperFunction,ComponentPad*%
%ADD10C,1.440000*%
%TD*%
%TA.AperFunction,ComponentPad*%
%ADD11R,1.700000X1.700000*%
%TD*%
G04 APERTURE END LIST*
D10*
%TO.P,RV1,1,1*%
%TO.N,/LDO_adj*%
X73705000Y-71770000D03*
%TO.P,RV1,2,2*%
%TO.N,GND*%
X76245000Y-74310000D03*
%TO.P,RV1,3,3*%
%TO.N,unconnected-(RV1-Pad3)*%
X73705000Y-76850000D03*
%TD*%
D11*
%TO.P,J4,1,Pin_1*%
%TO.N,GND*%
X81280000Y-76200000D03*
%TD*%
%TO.P,J2,1,Pin_1*%
%TO.N,/Vin*%
X81280000Y-60960000D03*
%TD*%
%TO.P,J1,1,Pin_1*%
%TO.N,/Vout*%
X68580000Y-60960000D03*
%TD*%
%TO.P,J3,1,Pin_1*%
%TO.N,GND*%
X68580000Y-76200000D03*
%TD*%
%TA.AperFunction,Conductor*%
%TO.N,GND*%
G36*
X83262539Y-58940185D02*
G01*
X83308294Y-58992989D01*
X83319500Y-59044500D01*
X83319500Y-78115500D01*
X83299815Y-78182539D01*
X83247011Y-78228294D01*
X83195500Y-78239500D01*
X66664500Y-78239500D01*
X66597461Y-78219815D01*
X66551706Y-78167011D01*
X66540500Y-78115500D01*
X66540500Y-77094785D01*
X67430001Y-77094785D01*
X67430002Y-77094808D01*
X67432908Y-77119869D01*
X67432909Y-77119873D01*
X67478211Y-77222474D01*
X67478214Y-77222479D01*
X67557520Y-77301785D01*
X67557525Y-77301788D01*
X67660123Y-77347089D01*
X67685206Y-77349999D01*
X68079999Y-77349999D01*
X69080000Y-77349999D01*
X69474786Y-77349999D01*
X69474808Y-77349997D01*
X69499869Y-77347091D01*
X69499873Y-77347090D01*
X69602474Y-77301788D01*
X69602479Y-77301785D01*
X69681785Y-77222479D01*
X69681788Y-77222474D01*
X69727089Y-77119877D01*
X69727089Y-77119875D01*
X69729999Y-77094794D01*
X69730000Y-77094791D01*
X69730000Y-76850000D01*
X72729804Y-76850000D01*
X72748541Y-77040249D01*
X72804037Y-77223195D01*
X72894150Y-77391784D01*
X72894155Y-77391791D01*
X73015431Y-77539568D01*
X73118267Y-77623962D01*
X73163210Y-77660846D01*
X73163213Y-77660847D01*
X73163215Y-77660849D01*
X73331804Y-77750962D01*
X73331806Y-77750962D01*
X73331809Y-77750964D01*
X73514749Y-77806458D01*
X73705000Y-77825196D01*
X73895251Y-77806458D01*
X74078191Y-77750964D01*
X74246790Y-77660846D01*
X74394568Y-77539568D01*
X74515846Y-77391790D01*
X74605964Y-77223191D01*
X74644915Y-77094785D01*
X80130001Y-77094785D01*
X80130002Y-77094808D01*
X80132908Y-77119869D01*
X80132909Y-77119873D01*
X80178211Y-77222474D01*
X80178214Y-77222479D01*
X80257520Y-77301785D01*
X80257525Y-77301788D01*
X80360123Y-77347089D01*
X80385206Y-77349999D01*
X80779999Y-77349999D01*
X81780000Y-77349999D01*
X82174786Y-77349999D01*
X82174808Y-77349997D01*
X82199869Y-77347091D01*
X82199873Y-77347090D01*
X82302474Y-77301788D01*
X82302479Y-77301785D01*
X82381785Y-77222479D01*
X82381788Y-77222474D01*
X82427089Y-77119877D01*
X82427089Y-77119875D01*
X82429999Y-77094794D01*
X82430000Y-77094791D01*
X82430000Y-76700000D01*
X81780000Y-76700000D01*
X81780000Y-77349999D01*
X80779999Y-77349999D01*
X80780000Y-77349998D01*
X80780000Y-76700000D01*
X80130001Y-76700000D01*
X80130001Y-77094785D01*
X74644915Y-77094785D01*
X74661458Y-77040251D01*
X74680196Y-76850000D01*
X74661458Y-76659749D01*
X74605964Y-76476809D01*
X74605962Y-76476806D01*
X74605962Y-76476804D01*
X74515849Y-76308215D01*
X74515847Y-76308213D01*
X74515846Y-76308210D01*
X74478962Y-76263267D01*
X74394568Y-76160431D01*
X74362573Y-76134174D01*
X80780000Y-76134174D01*
X80780000Y-76265826D01*
X80814075Y-76392993D01*
X80879901Y-76507007D01*
X80972993Y-76600099D01*
X81087007Y-76665925D01*
X81214174Y-76700000D01*
X81345826Y-76700000D01*
X81472993Y-76665925D01*
X81587007Y-76600099D01*
X81680099Y-76507007D01*
X81745925Y-76392993D01*
X81780000Y-76265826D01*
X81780000Y-76134174D01*
X81745925Y-76007007D01*
X81680099Y-75892993D01*
X81587007Y-75799901D01*
X81472993Y-75734075D01*
X81345826Y-75700000D01*
X81780000Y-75700000D01*
X82429999Y-75700000D01*
X82429999Y-75305214D01*
X82429997Y-75305191D01*
X82427091Y-75280130D01*
X82427090Y-75280126D01*
X82381788Y-75177525D01*
X82381785Y-75177520D01*
X82302479Y-75098214D01*
X82302474Y-75098211D01*
X82199876Y-75052910D01*
X82174794Y-75050000D01*
X81780000Y-75050000D01*
X81780000Y-75700000D01*
X81345826Y-75700000D01*
X81214174Y-75700000D01*
X81087007Y-75734075D01*
X80972993Y-75799901D01*
X80879901Y-75892993D01*
X80814075Y-76007007D01*
X80780000Y-76134174D01*
X74362573Y-76134174D01*
X74246791Y-76039155D01*
X74246784Y-76039150D01*
X74078195Y-75949037D01*
X73895249Y-75893541D01*
X73705000Y-75874804D01*
X73514750Y-75893541D01*
X73331804Y-75949037D01*
X73163215Y-76039150D01*
X73163208Y-76039155D01*
X73015431Y-76160431D01*
X72894155Y-76308208D01*
X72894150Y-76308215D01*
X72804037Y-76476804D01*
X72748541Y-76659750D01*
X72729804Y-76850000D01*
X69730000Y-76850000D01*
X69730000Y-76700000D01*
X69080000Y-76700000D01*
X69080000Y-77349999D01*
X68079999Y-77349999D01*
X68080000Y-77349998D01*
X68080000Y-76700000D01*
X67430001Y-76700000D01*
X67430001Y-77094785D01*
X66540500Y-77094785D01*
X66540500Y-76134174D01*
X68080000Y-76134174D01*
X68080000Y-76265826D01*
X68114075Y-76392993D01*
X68179901Y-76507007D01*
X68272993Y-76600099D01*
X68387007Y-76665925D01*
X68514174Y-76700000D01*
X68645826Y-76700000D01*
X68772993Y-76665925D01*
X68887007Y-76600099D01*
X68980099Y-76507007D01*
X69045925Y-76392993D01*
X69080000Y-76265826D01*
X69080000Y-76134174D01*
X69045925Y-76007007D01*
X68980099Y-75892993D01*
X68887007Y-75799901D01*
X68772993Y-75734075D01*
X68645826Y-75700000D01*
X69080000Y-75700000D01*
X69729999Y-75700000D01*
X69729999Y-75305214D01*
X69729997Y-75305191D01*
X69728513Y-75292389D01*
X75969715Y-75292389D01*
X75969716Y-75292390D01*
X76045042Y-75315240D01*
X76045044Y-75315241D01*
X76245000Y-75334934D01*
X76444955Y-75315241D01*
X76444957Y-75315240D01*
X76478037Y-75305205D01*
X80130000Y-75305205D01*
X80130000Y-75700000D01*
X80780000Y-75700000D01*
X80780000Y-75050000D01*
X80385214Y-75050000D01*
X80385191Y-75050002D01*
X80360130Y-75052908D01*
X80360126Y-75052909D01*
X80257525Y-75098211D01*
X80257520Y-75098214D01*
X80178214Y-75177520D01*
X80178211Y-75177525D01*
X80132910Y-75280122D01*
X80132910Y-75280124D01*
X80130000Y-75305205D01*
X76478037Y-75305205D01*
X76520282Y-75292390D01*
X76520283Y-75292389D01*
X76245001Y-75017107D01*
X76245000Y-75017107D01*
X75969715Y-75292389D01*
X69728513Y-75292389D01*
X69727091Y-75280130D01*
X69727090Y-75280126D01*
X69681788Y-75177525D01*
X69681785Y-75177520D01*
X69602479Y-75098214D01*
X69602474Y-75098211D01*
X69499876Y-75052910D01*
X69474794Y-75050000D01*
X69080000Y-75050000D01*
X69080000Y-75700000D01*
X68645826Y-75700000D01*
X68514174Y-75700000D01*
X68387007Y-75734075D01*
X68272993Y-75799901D01*
X68179901Y-75892993D01*
X68114075Y-76007007D01*
X68080000Y-76134174D01*
X66540500Y-76134174D01*
X66540500Y-75305205D01*
X67430000Y-75305205D01*
X67430000Y-75700000D01*
X68080000Y-75700000D01*
X68080000Y-75050000D01*
X67685214Y-75050000D01*
X67685191Y-75050002D01*
X67660130Y-75052908D01*
X67660126Y-75052909D01*
X67557525Y-75098211D01*
X67557520Y-75098214D01*
X67478214Y-75177520D01*
X67478211Y-75177525D01*
X67432910Y-75280122D01*
X67432910Y-75280124D01*
X67430000Y-75305205D01*
X66540500Y-75305205D01*
X66540500Y-74310000D01*
X75220065Y-74310000D01*
X75239758Y-74509952D01*
X75262609Y-74585282D01*
X75537893Y-74310000D01*
X75485232Y-74257339D01*
X75845000Y-74257339D01*
X75845000Y-74362661D01*
X75872259Y-74464394D01*
X75924920Y-74555606D01*
X75999394Y-74630080D01*
X76090606Y-74682741D01*
X76192339Y-74710000D01*
X76297661Y-74710000D01*
X76399394Y-74682741D01*
X76490606Y-74630080D01*
X76565080Y-74555606D01*
X76617741Y-74464394D01*
X76645000Y-74362661D01*
X76645000Y-74309999D01*
X76952107Y-74309999D01*
X76952107Y-74310001D01*
X77227389Y-74585283D01*
X77227390Y-74585282D01*
X77250240Y-74509957D01*
X77250241Y-74509955D01*
X77269934Y-74310000D01*
X77250241Y-74110044D01*
X77250240Y-74110042D01*
X77227390Y-74034716D01*
X77227389Y-74034715D01*
X76952107Y-74309999D01*
X76645000Y-74309999D01*
X76645000Y-74257339D01*
X76617741Y-74155606D01*
X76565080Y-74064394D01*
X76490606Y-73989920D01*
X76399394Y-73937259D01*
X76297661Y-73910000D01*
X76192339Y-73910000D01*
X76090606Y-73937259D01*
X75999394Y-73989920D01*
X75924920Y-74064394D01*
X75872259Y-74155606D01*
X75845000Y-74257339D01*
X75485232Y-74257339D01*
X75262609Y-74034716D01*
X75239758Y-74110046D01*
X75220065Y-74310000D01*
X66540500Y-74310000D01*
X66540500Y-73327609D01*
X75969716Y-73327609D01*
X76245000Y-73602893D01*
X76245001Y-73602893D01*
X76520282Y-73327609D01*
X76444950Y-73304758D01*
X76444954Y-73304758D01*
X76245000Y-73285065D01*
X76045046Y-73304758D01*
X75969716Y-73327609D01*
X66540500Y-73327609D01*
X66540500Y-71770000D01*
X72729804Y-71770000D01*
X72748541Y-71960249D01*
X72804037Y-72143195D01*
X72894150Y-72311784D01*
X72894155Y-72311791D01*
X73015431Y-72459568D01*
X73118267Y-72543962D01*
X73163210Y-72580846D01*
X73163213Y-72580847D01*
X73163215Y-72580849D01*
X73331804Y-72670962D01*
X73331806Y-72670962D01*
X73331809Y-72670964D01*
X73514749Y-72726458D01*
X73705000Y-72745196D01*
X73895251Y-72726458D01*
X74078191Y-72670964D01*
X74246790Y-72580846D01*
X74394568Y-72459568D01*
X74515846Y-72311790D01*
X74605964Y-72143191D01*
X74661458Y-71960251D01*
X74680196Y-71770000D01*
X74661458Y-71579749D01*
X74605964Y-71396809D01*
X74605962Y-71396806D01*
X74605962Y-71396804D01*
X74515849Y-71228215D01*
X74515847Y-71228213D01*
X74515846Y-71228210D01*
X74478962Y-71183267D01*
X74394568Y-71080431D01*
X74246791Y-70959155D01*
X74246784Y-70959150D01*
X74078195Y-70869037D01*
X73895249Y-70813541D01*
X73705000Y-70794804D01*
X73514750Y-70813541D01*
X73331804Y-70869037D01*
X73163215Y-70959150D01*
X73163208Y-70959155D01*
X73015431Y-71080431D01*
X72894155Y-71228208D01*
X72894150Y-71228215D01*
X72804037Y-71396804D01*
X72748541Y-71579750D01*
X72729804Y-71770000D01*
X66540500Y-71770000D01*
X66540500Y-60085321D01*
X67479500Y-60085321D01*
X67479500Y-61834678D01*
X67494032Y-61907735D01*
X67494033Y-61907739D01*
X67494034Y-61907740D01*
X67549399Y-61990601D01*
X67632260Y-62045966D01*
X67632264Y-62045967D01*
X67705321Y-62060499D01*
X67705324Y-62060500D01*
X67705326Y-62060500D01*
X69454676Y-62060500D01*
X69454677Y-62060499D01*
X69527740Y-62045966D01*
X69610601Y-61990601D01*
X69665966Y-61907740D01*
X69680500Y-61834674D01*
X69680500Y-60085326D01*
X69680500Y-60085323D01*
X69680499Y-60085321D01*
X80179500Y-60085321D01*
X80179500Y-61834678D01*
X80194032Y-61907735D01*
X80194033Y-61907739D01*
X80194034Y-61907740D01*
X80249399Y-61990601D01*
X80332260Y-62045966D01*
X80332264Y-62045967D01*
X80405321Y-62060499D01*
X80405324Y-62060500D01*
X80405326Y-62060500D01*
X82154676Y-62060500D01*
X82154677Y-62060499D01*
X82227740Y-62045966D01*
X82310601Y-61990601D01*
X82365966Y-61907740D01*
X82380500Y-61834674D01*
X82380500Y-60085326D01*
X82380500Y-60085323D01*
X82380499Y-60085321D01*
X82365967Y-60012264D01*
X82365966Y-60012260D01*
X82310601Y-59929399D01*
X82227740Y-59874034D01*
X82227739Y-59874033D01*
X82227735Y-59874032D01*
X82154677Y-59859500D01*
X82154674Y-59859500D01*
X80405326Y-59859500D01*
X80405323Y-59859500D01*
X80332264Y-59874032D01*
X80332260Y-59874033D01*
X80249399Y-59929399D01*
X80194033Y-60012260D01*
X80194032Y-60012264D01*
X80179500Y-60085321D01*
X69680499Y-60085321D01*
X69665967Y-60012264D01*
X69665966Y-60012260D01*
X69610601Y-59929399D01*
X69527740Y-59874034D01*
X69527739Y-59874033D01*
X69527735Y-59874032D01*
X69454677Y-59859500D01*
X69454674Y-59859500D01*
X67705326Y-59859500D01*
X67705323Y-59859500D01*
X67632264Y-59874032D01*
X67632260Y-59874033D01*
X67549399Y-59929399D01*
X67494033Y-60012260D01*
X67494032Y-60012264D01*
X67479500Y-60085321D01*
X66540500Y-60085321D01*
X66540500Y-59044500D01*
X66560185Y-58977461D01*
X66612989Y-58931706D01*
X66664500Y-58920500D01*
X83195500Y-58920500D01*
X83262539Y-58940185D01*
G37*
%TD.AperFunction*%
%TD*%
M02*
