%TF.GenerationSoftware,KiCad,Pcbnew,8.0.3*%
%TF.CreationDate,2024-07-23T12:16:12+02:00*%
%TF.ProjectId,TinyLDOP,54696e79-4c44-44f5-902e-6b696361645f,rev?*%
%TF.SameCoordinates,Original*%
%TF.FileFunction,Copper,L1,Top*%
%TF.FilePolarity,Positive*%
%FSLAX46Y46*%
G04 Gerber Fmt 4.6, Leading zero omitted, Abs format (unit mm)*
G04 Created by KiCad (PCBNEW 8.0.3) date 2024-07-23 12:16:12*
%MOMM*%
%LPD*%
G01*
G04 APERTURE LIST*
G04 Aperture macros list*
%AMRoundRect*
0 Rectangle with rounded corners*
0 $1 Rounding radius*
0 $2 $3 $4 $5 $6 $7 $8 $9 X,Y pos of 4 corners*
0 Add a 4 corners polygon primitive as box body*
4,1,4,$2,$3,$4,$5,$6,$7,$8,$9,$2,$3,0*
0 Add four circle primitives for the rounded corners*
1,1,$1+$1,$2,$3*
1,1,$1+$1,$4,$5*
1,1,$1+$1,$6,$7*
1,1,$1+$1,$8,$9*
0 Add four rect primitives between the rounded corners*
20,1,$1+$1,$2,$3,$4,$5,0*
20,1,$1+$1,$4,$5,$6,$7,0*
20,1,$1+$1,$6,$7,$8,$9,0*
20,1,$1+$1,$8,$9,$2,$3,0*%
G04 Aperture macros list end*
%TA.AperFunction,SMDPad,CuDef*%
%ADD10RoundRect,0.250000X1.100000X-0.412500X1.100000X0.412500X-1.100000X0.412500X-1.100000X-0.412500X0*%
%TD*%
%TA.AperFunction,SMDPad,CuDef*%
%ADD11RoundRect,0.250000X-0.450000X0.350000X-0.450000X-0.350000X0.450000X-0.350000X0.450000X0.350000X0*%
%TD*%
%TA.AperFunction,ComponentPad*%
%ADD12C,1.440000*%
%TD*%
%TA.AperFunction,SMDPad,CuDef*%
%ADD13RoundRect,0.375000X0.625000X0.375000X-0.625000X0.375000X-0.625000X-0.375000X0.625000X-0.375000X0*%
%TD*%
%TA.AperFunction,SMDPad,CuDef*%
%ADD14RoundRect,0.500000X0.500000X1.400000X-0.500000X1.400000X-0.500000X-1.400000X0.500000X-1.400000X0*%
%TD*%
%TA.AperFunction,SMDPad,CuDef*%
%ADD15RoundRect,0.250000X0.450000X-0.350000X0.450000X0.350000X-0.450000X0.350000X-0.450000X-0.350000X0*%
%TD*%
%TA.AperFunction,ComponentPad*%
%ADD16R,1.700000X1.700000*%
%TD*%
%TA.AperFunction,Conductor*%
%ADD17C,1.500000*%
%TD*%
%TA.AperFunction,Conductor*%
%ADD18C,1.000000*%
%TD*%
G04 APERTURE END LIST*
D10*
%TO.P,C2,1*%
%TO.N,GND*%
X81280000Y-68021000D03*
%TO.P,C2,2*%
%TO.N,/Vin*%
X81280000Y-64896000D03*
%TD*%
%TO.P,C1,1*%
%TO.N,GND*%
X68580000Y-68021000D03*
%TO.P,C1,2*%
%TO.N,/Vout*%
X68580000Y-64896000D03*
%TD*%
D11*
%TO.P,R1,1*%
%TO.N,/Vout*%
X71120000Y-71390000D03*
%TO.P,R1,2*%
%TO.N,/LDO_adj*%
X71120000Y-73390000D03*
%TD*%
D12*
%TO.P,RV1,1,1*%
%TO.N,/LDO_adj*%
X73705000Y-71770000D03*
%TO.P,RV1,2,2*%
%TO.N,GND*%
X76245000Y-74310000D03*
%TO.P,RV1,3,3*%
%TO.N,unconnected-(RV1-Pad3)*%
X73705000Y-76850000D03*
%TD*%
D13*
%TO.P,U1,1,ADJ*%
%TO.N,/LDO_adj*%
X78080000Y-68721000D03*
%TO.P,U1,2,VO*%
%TO.N,/Vout*%
X78080000Y-66421000D03*
D14*
X71780000Y-66421000D03*
D13*
%TO.P,U1,3,VI*%
%TO.N,/Vin*%
X78080000Y-64121000D03*
%TD*%
D15*
%TO.P,C3,1*%
%TO.N,GND*%
X78740000Y-73390000D03*
%TO.P,C3,2*%
%TO.N,/LDO_adj*%
X78740000Y-71390000D03*
%TD*%
D16*
%TO.P,J4,1,Pin_1*%
%TO.N,GND*%
X81280000Y-76200000D03*
%TD*%
%TO.P,J2,1,Pin_1*%
%TO.N,/Vin*%
X81280000Y-60960000D03*
%TD*%
%TO.P,J1,1,Pin_1*%
%TO.N,/Vout*%
X68580000Y-60960000D03*
%TD*%
%TO.P,J3,1,Pin_1*%
%TO.N,GND*%
X68580000Y-76200000D03*
%TD*%
D17*
%TO.N,/Vout*%
X78080000Y-66421000D02*
X71780000Y-66421000D01*
D18*
X71120000Y-71390000D02*
X71120000Y-69596000D01*
%TO.N,/LDO_adj*%
X77724000Y-71390000D02*
X74085000Y-71390000D01*
X78080000Y-71034000D02*
X77724000Y-71390000D01*
X72914000Y-73390000D02*
X73705000Y-72599000D01*
X73705000Y-72599000D02*
X73705000Y-71770000D01*
X71120000Y-73390000D02*
X72914000Y-73390000D01*
X74085000Y-71390000D02*
X73705000Y-71770000D01*
X78080000Y-68721000D02*
X78080000Y-71034000D01*
X78740000Y-71390000D02*
X77724000Y-71390000D01*
%TD*%
%TA.AperFunction,Conductor*%
%TO.N,GND*%
G36*
X79489434Y-66520186D02*
G01*
X79554015Y-66539150D01*
X79554019Y-66539150D01*
X79554021Y-66539151D01*
X79565652Y-66540823D01*
X79626000Y-66549500D01*
X79626001Y-66549500D01*
X83195500Y-66549500D01*
X83262539Y-66569185D01*
X83308294Y-66621989D01*
X83319500Y-66673500D01*
X83319500Y-78115500D01*
X83299815Y-78182539D01*
X83247011Y-78228294D01*
X83195500Y-78239500D01*
X66664500Y-78239500D01*
X66597461Y-78219815D01*
X66551706Y-78167011D01*
X66540500Y-78115500D01*
X66540500Y-77094785D01*
X67430001Y-77094785D01*
X67430002Y-77094808D01*
X67432908Y-77119869D01*
X67432909Y-77119873D01*
X67478211Y-77222474D01*
X67478214Y-77222479D01*
X67557520Y-77301785D01*
X67557525Y-77301788D01*
X67660123Y-77347089D01*
X67685206Y-77349999D01*
X68079999Y-77349999D01*
X69080000Y-77349999D01*
X69474786Y-77349999D01*
X69474808Y-77349997D01*
X69499869Y-77347091D01*
X69499873Y-77347090D01*
X69602474Y-77301788D01*
X69602479Y-77301785D01*
X69681785Y-77222479D01*
X69681788Y-77222474D01*
X69727089Y-77119877D01*
X69727089Y-77119875D01*
X69729999Y-77094794D01*
X69730000Y-77094791D01*
X69730000Y-76850000D01*
X72729804Y-76850000D01*
X72748541Y-77040249D01*
X72804037Y-77223195D01*
X72894150Y-77391784D01*
X72894155Y-77391791D01*
X73015431Y-77539568D01*
X73118267Y-77623962D01*
X73163210Y-77660846D01*
X73163213Y-77660847D01*
X73163215Y-77660849D01*
X73331804Y-77750962D01*
X73331806Y-77750962D01*
X73331809Y-77750964D01*
X73514749Y-77806458D01*
X73705000Y-77825196D01*
X73895251Y-77806458D01*
X74078191Y-77750964D01*
X74246790Y-77660846D01*
X74394568Y-77539568D01*
X74515846Y-77391790D01*
X74605964Y-77223191D01*
X74644915Y-77094785D01*
X80130001Y-77094785D01*
X80130002Y-77094808D01*
X80132908Y-77119869D01*
X80132909Y-77119873D01*
X80178211Y-77222474D01*
X80178214Y-77222479D01*
X80257520Y-77301785D01*
X80257525Y-77301788D01*
X80360123Y-77347089D01*
X80385206Y-77349999D01*
X80779999Y-77349999D01*
X81780000Y-77349999D01*
X82174786Y-77349999D01*
X82174808Y-77349997D01*
X82199869Y-77347091D01*
X82199873Y-77347090D01*
X82302474Y-77301788D01*
X82302479Y-77301785D01*
X82381785Y-77222479D01*
X82381788Y-77222474D01*
X82427089Y-77119877D01*
X82427089Y-77119875D01*
X82429999Y-77094794D01*
X82430000Y-77094791D01*
X82430000Y-76700000D01*
X81780000Y-76700000D01*
X81780000Y-77349999D01*
X80779999Y-77349999D01*
X80780000Y-77349998D01*
X80780000Y-76700000D01*
X80130001Y-76700000D01*
X80130001Y-77094785D01*
X74644915Y-77094785D01*
X74661458Y-77040251D01*
X74680196Y-76850000D01*
X74661458Y-76659749D01*
X74605964Y-76476809D01*
X74605962Y-76476806D01*
X74605962Y-76476804D01*
X74515849Y-76308215D01*
X74515847Y-76308213D01*
X74515846Y-76308210D01*
X74478962Y-76263267D01*
X74394568Y-76160431D01*
X74362573Y-76134174D01*
X80780000Y-76134174D01*
X80780000Y-76265826D01*
X80814075Y-76392993D01*
X80879901Y-76507007D01*
X80972993Y-76600099D01*
X81087007Y-76665925D01*
X81214174Y-76700000D01*
X81345826Y-76700000D01*
X81472993Y-76665925D01*
X81587007Y-76600099D01*
X81680099Y-76507007D01*
X81745925Y-76392993D01*
X81780000Y-76265826D01*
X81780000Y-76134174D01*
X81745925Y-76007007D01*
X81680099Y-75892993D01*
X81587007Y-75799901D01*
X81472993Y-75734075D01*
X81345826Y-75700000D01*
X81780000Y-75700000D01*
X82429999Y-75700000D01*
X82429999Y-75305214D01*
X82429997Y-75305191D01*
X82427091Y-75280130D01*
X82427090Y-75280126D01*
X82381788Y-75177525D01*
X82381785Y-75177520D01*
X82302479Y-75098214D01*
X82302474Y-75098211D01*
X82199876Y-75052910D01*
X82174794Y-75050000D01*
X81780000Y-75050000D01*
X81780000Y-75700000D01*
X81345826Y-75700000D01*
X81214174Y-75700000D01*
X81087007Y-75734075D01*
X80972993Y-75799901D01*
X80879901Y-75892993D01*
X80814075Y-76007007D01*
X80780000Y-76134174D01*
X74362573Y-76134174D01*
X74246791Y-76039155D01*
X74246784Y-76039150D01*
X74078195Y-75949037D01*
X73895249Y-75893541D01*
X73705000Y-75874804D01*
X73514750Y-75893541D01*
X73331804Y-75949037D01*
X73163215Y-76039150D01*
X73163208Y-76039155D01*
X73015431Y-76160431D01*
X72894155Y-76308208D01*
X72894150Y-76308215D01*
X72804037Y-76476804D01*
X72748541Y-76659750D01*
X72729804Y-76850000D01*
X69730000Y-76850000D01*
X69730000Y-76700000D01*
X69080000Y-76700000D01*
X69080000Y-77349999D01*
X68079999Y-77349999D01*
X68080000Y-77349998D01*
X68080000Y-76700000D01*
X67430001Y-76700000D01*
X67430001Y-77094785D01*
X66540500Y-77094785D01*
X66540500Y-76134174D01*
X68080000Y-76134174D01*
X68080000Y-76265826D01*
X68114075Y-76392993D01*
X68179901Y-76507007D01*
X68272993Y-76600099D01*
X68387007Y-76665925D01*
X68514174Y-76700000D01*
X68645826Y-76700000D01*
X68772993Y-76665925D01*
X68887007Y-76600099D01*
X68980099Y-76507007D01*
X69045925Y-76392993D01*
X69080000Y-76265826D01*
X69080000Y-76134174D01*
X69045925Y-76007007D01*
X68980099Y-75892993D01*
X68887007Y-75799901D01*
X68772993Y-75734075D01*
X68645826Y-75700000D01*
X69080000Y-75700000D01*
X69729999Y-75700000D01*
X69729999Y-75305214D01*
X69729997Y-75305191D01*
X69728513Y-75292389D01*
X75969715Y-75292389D01*
X75969716Y-75292390D01*
X76045042Y-75315240D01*
X76045044Y-75315241D01*
X76245000Y-75334934D01*
X76444955Y-75315241D01*
X76444957Y-75315240D01*
X76478037Y-75305205D01*
X80130000Y-75305205D01*
X80130000Y-75700000D01*
X80780000Y-75700000D01*
X80780000Y-75050000D01*
X80385214Y-75050000D01*
X80385191Y-75050002D01*
X80360130Y-75052908D01*
X80360126Y-75052909D01*
X80257525Y-75098211D01*
X80257520Y-75098214D01*
X80178214Y-75177520D01*
X80178211Y-75177525D01*
X80132910Y-75280122D01*
X80132910Y-75280124D01*
X80130000Y-75305205D01*
X76478037Y-75305205D01*
X76520282Y-75292390D01*
X76520283Y-75292389D01*
X76245001Y-75017107D01*
X76245000Y-75017107D01*
X75969715Y-75292389D01*
X69728513Y-75292389D01*
X69727091Y-75280130D01*
X69727090Y-75280126D01*
X69681788Y-75177525D01*
X69681785Y-75177520D01*
X69602479Y-75098214D01*
X69602474Y-75098211D01*
X69499876Y-75052910D01*
X69474794Y-75050000D01*
X69080000Y-75050000D01*
X69080000Y-75700000D01*
X68645826Y-75700000D01*
X68514174Y-75700000D01*
X68387007Y-75734075D01*
X68272993Y-75799901D01*
X68179901Y-75892993D01*
X68114075Y-76007007D01*
X68080000Y-76134174D01*
X66540500Y-76134174D01*
X66540500Y-75305205D01*
X67430000Y-75305205D01*
X67430000Y-75700000D01*
X68080000Y-75700000D01*
X68080000Y-75050000D01*
X67685214Y-75050000D01*
X67685191Y-75050002D01*
X67660130Y-75052908D01*
X67660126Y-75052909D01*
X67557525Y-75098211D01*
X67557520Y-75098214D01*
X67478214Y-75177520D01*
X67478211Y-75177525D01*
X67432910Y-75280122D01*
X67432910Y-75280124D01*
X67430000Y-75305205D01*
X66540500Y-75305205D01*
X66540500Y-74310000D01*
X75220065Y-74310000D01*
X75239758Y-74509952D01*
X75262609Y-74585282D01*
X75537893Y-74310000D01*
X75485232Y-74257339D01*
X75845000Y-74257339D01*
X75845000Y-74362661D01*
X75872259Y-74464394D01*
X75924920Y-74555606D01*
X75999394Y-74630080D01*
X76090606Y-74682741D01*
X76192339Y-74710000D01*
X76297661Y-74710000D01*
X76399394Y-74682741D01*
X76490606Y-74630080D01*
X76565080Y-74555606D01*
X76617741Y-74464394D01*
X76645000Y-74362661D01*
X76645000Y-74309999D01*
X76952107Y-74309999D01*
X76952107Y-74310001D01*
X77227389Y-74585283D01*
X77227390Y-74585282D01*
X77250240Y-74509957D01*
X77250241Y-74509955D01*
X77269934Y-74310000D01*
X77250241Y-74110044D01*
X77250240Y-74110042D01*
X77227390Y-74034716D01*
X77227389Y-74034715D01*
X76952107Y-74309999D01*
X76645000Y-74309999D01*
X76645000Y-74257339D01*
X76617741Y-74155606D01*
X76565080Y-74064394D01*
X76490606Y-73989920D01*
X76399394Y-73937259D01*
X76297661Y-73910000D01*
X76192339Y-73910000D01*
X76090606Y-73937259D01*
X75999394Y-73989920D01*
X75924920Y-74064394D01*
X75872259Y-74155606D01*
X75845000Y-74257339D01*
X75485232Y-74257339D01*
X75262609Y-74034716D01*
X75239758Y-74110046D01*
X75220065Y-74310000D01*
X66540500Y-74310000D01*
X66540500Y-72992127D01*
X70169500Y-72992127D01*
X70169500Y-73787870D01*
X70169501Y-73787876D01*
X70175908Y-73847483D01*
X70226202Y-73982328D01*
X70226206Y-73982335D01*
X70312452Y-74097544D01*
X70312455Y-74097547D01*
X70427664Y-74183793D01*
X70427671Y-74183797D01*
X70562517Y-74234091D01*
X70562516Y-74234091D01*
X70569444Y-74234835D01*
X70622127Y-74240500D01*
X71617872Y-74240499D01*
X71677483Y-74234091D01*
X71812331Y-74183796D01*
X71837128Y-74165233D01*
X71902592Y-74140816D01*
X71911439Y-74140500D01*
X72987920Y-74140500D01*
X73085462Y-74121096D01*
X73132913Y-74111658D01*
X73269495Y-74055084D01*
X73318729Y-74022186D01*
X73392416Y-73972952D01*
X73475368Y-73890000D01*
X77757932Y-73890000D01*
X77806079Y-74012095D01*
X77897435Y-74132564D01*
X78017904Y-74223920D01*
X78158557Y-74279386D01*
X78240000Y-74289165D01*
X79240000Y-74289165D01*
X79321442Y-74279386D01*
X79462095Y-74223920D01*
X79582564Y-74132564D01*
X79673920Y-74012095D01*
X79722068Y-73890000D01*
X79240000Y-73890000D01*
X79240000Y-74289165D01*
X78240000Y-74289165D01*
X78240000Y-73890000D01*
X77757932Y-73890000D01*
X73475368Y-73890000D01*
X74037759Y-73327609D01*
X75969716Y-73327609D01*
X76245000Y-73602893D01*
X76245001Y-73602893D01*
X76520282Y-73327609D01*
X76444950Y-73304758D01*
X76444954Y-73304758D01*
X76245000Y-73285065D01*
X76045046Y-73304758D01*
X75969716Y-73327609D01*
X74037759Y-73327609D01*
X74287952Y-73077416D01*
X74344939Y-72992127D01*
X74370084Y-72954495D01*
X74396799Y-72890000D01*
X77757932Y-72890000D01*
X78240000Y-72890000D01*
X79240000Y-72890000D01*
X79722068Y-72890000D01*
X79673920Y-72767904D01*
X79582564Y-72647435D01*
X79462095Y-72556079D01*
X79321443Y-72500613D01*
X79240000Y-72490832D01*
X79240000Y-72890000D01*
X78240000Y-72890000D01*
X78240000Y-72490832D01*
X78239999Y-72490832D01*
X78158556Y-72500613D01*
X78017904Y-72556079D01*
X77897435Y-72647435D01*
X77806079Y-72767904D01*
X77757932Y-72890000D01*
X74396799Y-72890000D01*
X74426658Y-72817913D01*
X74455500Y-72672918D01*
X74455500Y-72429689D01*
X74475185Y-72362650D01*
X74483648Y-72351023D01*
X74515844Y-72311792D01*
X74515846Y-72311790D01*
X74572367Y-72206045D01*
X74621329Y-72156203D01*
X74681725Y-72140500D01*
X77650082Y-72140500D01*
X77650083Y-72140500D01*
X77797917Y-72140500D01*
X77948561Y-72140500D01*
X78015600Y-72160185D01*
X78022872Y-72165233D01*
X78047668Y-72183795D01*
X78047671Y-72183797D01*
X78182517Y-72234091D01*
X78182516Y-72234091D01*
X78189444Y-72234835D01*
X78242127Y-72240500D01*
X78252001Y-72240499D01*
X78263202Y-72243787D01*
X78268226Y-72241564D01*
X78284428Y-72240499D01*
X79195557Y-72240499D01*
X79205178Y-72243324D01*
X79207485Y-72242205D01*
X79227983Y-72240499D01*
X79237872Y-72240499D01*
X79297483Y-72234091D01*
X79432331Y-72183796D01*
X79547546Y-72097546D01*
X79633796Y-71982331D01*
X79684091Y-71847483D01*
X79690500Y-71787873D01*
X79690499Y-70992128D01*
X79684091Y-70932517D01*
X79639716Y-70813542D01*
X79633797Y-70797671D01*
X79633793Y-70797664D01*
X79547547Y-70682455D01*
X79547544Y-70682452D01*
X79432335Y-70596206D01*
X79432328Y-70596202D01*
X79297482Y-70545908D01*
X79297483Y-70545908D01*
X79237883Y-70539501D01*
X79237881Y-70539500D01*
X79237873Y-70539500D01*
X79237865Y-70539500D01*
X78954500Y-70539500D01*
X78887461Y-70519815D01*
X78841706Y-70467011D01*
X78830500Y-70415500D01*
X78830500Y-69804003D01*
X78850185Y-69736964D01*
X78902989Y-69691209D01*
X78919900Y-69684928D01*
X78955390Y-69674618D01*
X79091420Y-69594170D01*
X79203170Y-69482420D01*
X79283618Y-69346390D01*
X79327709Y-69194627D01*
X79330500Y-69159163D01*
X79330499Y-68521000D01*
X79635337Y-68521000D01*
X79640613Y-68564942D01*
X79696079Y-68705595D01*
X79787435Y-68826064D01*
X79907904Y-68917420D01*
X80048556Y-68972886D01*
X80136946Y-68983500D01*
X80780000Y-68983500D01*
X81780000Y-68983500D01*
X82423054Y-68983500D01*
X82511443Y-68972886D01*
X82652095Y-68917420D01*
X82772564Y-68826064D01*
X82863920Y-68705595D01*
X82919386Y-68564942D01*
X82924663Y-68521000D01*
X81780000Y-68521000D01*
X81780000Y-68983500D01*
X80780000Y-68983500D01*
X80780000Y-68521000D01*
X79635337Y-68521000D01*
X79330499Y-68521000D01*
X79330499Y-68282838D01*
X79327709Y-68247373D01*
X79283618Y-68095610D01*
X79203170Y-67959580D01*
X79203168Y-67959578D01*
X79203165Y-67959574D01*
X79091425Y-67847834D01*
X79091416Y-67847827D01*
X78955390Y-67767382D01*
X78955385Y-67767380D01*
X78803633Y-67723292D01*
X78803620Y-67723290D01*
X78768163Y-67720500D01*
X77391849Y-67720500D01*
X77391824Y-67720501D01*
X77356372Y-67723291D01*
X77204614Y-67767380D01*
X77204609Y-67767382D01*
X77068583Y-67847827D01*
X77068574Y-67847834D01*
X76956834Y-67959574D01*
X76956827Y-67959583D01*
X76876382Y-68095609D01*
X76876380Y-68095614D01*
X76832292Y-68247366D01*
X76832290Y-68247379D01*
X76829500Y-68282829D01*
X76829500Y-69159150D01*
X76829501Y-69159175D01*
X76832291Y-69194627D01*
X76876380Y-69346385D01*
X76876382Y-69346390D01*
X76956827Y-69482416D01*
X76956834Y-69482425D01*
X77068574Y-69594165D01*
X77068578Y-69594168D01*
X77068580Y-69594170D01*
X77204610Y-69674618D01*
X77240094Y-69684926D01*
X77298979Y-69722532D01*
X77328187Y-69786004D01*
X77329500Y-69804003D01*
X77329500Y-70515500D01*
X77309815Y-70582539D01*
X77257011Y-70628294D01*
X77205500Y-70639500D01*
X74011080Y-70639500D01*
X73866092Y-70668340D01*
X73866086Y-70668342D01*
X73729508Y-70724914D01*
X73729496Y-70724921D01*
X73636887Y-70786799D01*
X73580154Y-70807099D01*
X73514750Y-70813541D01*
X73331804Y-70869037D01*
X73163215Y-70959150D01*
X73163208Y-70959155D01*
X73015431Y-71080431D01*
X72894155Y-71228208D01*
X72894150Y-71228215D01*
X72804037Y-71396804D01*
X72748541Y-71579750D01*
X72729804Y-71770000D01*
X72748541Y-71960249D01*
X72748542Y-71960251D01*
X72804036Y-72143191D01*
X72857558Y-72243324D01*
X72863581Y-72254591D01*
X72877823Y-72322994D01*
X72852823Y-72388238D01*
X72841905Y-72400726D01*
X72639449Y-72603182D01*
X72578129Y-72636666D01*
X72551770Y-72639500D01*
X71911439Y-72639500D01*
X71844400Y-72619815D01*
X71837128Y-72614767D01*
X71812331Y-72596204D01*
X71812328Y-72596202D01*
X71677482Y-72545908D01*
X71677483Y-72545908D01*
X71617883Y-72539501D01*
X71617881Y-72539500D01*
X71617873Y-72539500D01*
X71617864Y-72539500D01*
X70622129Y-72539500D01*
X70622123Y-72539501D01*
X70562516Y-72545908D01*
X70427671Y-72596202D01*
X70427664Y-72596206D01*
X70312455Y-72682452D01*
X70312452Y-72682455D01*
X70226206Y-72797664D01*
X70226202Y-72797671D01*
X70175908Y-72932517D01*
X70169501Y-72992116D01*
X70169500Y-72992127D01*
X66540500Y-72992127D01*
X66540500Y-68521000D01*
X66935337Y-68521000D01*
X66940613Y-68564942D01*
X66996079Y-68705595D01*
X67087435Y-68826064D01*
X67207904Y-68917420D01*
X67348556Y-68972886D01*
X67436946Y-68983500D01*
X68080000Y-68983500D01*
X68080000Y-68521000D01*
X66935337Y-68521000D01*
X66540500Y-68521000D01*
X66540500Y-67181500D01*
X66560185Y-67114461D01*
X66612989Y-67068706D01*
X66664500Y-67057500D01*
X66957926Y-67057500D01*
X67024965Y-67077185D01*
X67070720Y-67129989D01*
X67080664Y-67199147D01*
X67056730Y-67256426D01*
X66996079Y-67336404D01*
X66940613Y-67477057D01*
X66935337Y-67521000D01*
X68956000Y-67521000D01*
X69023039Y-67540685D01*
X69068794Y-67593489D01*
X69080000Y-67645000D01*
X69080000Y-68983500D01*
X69723054Y-68983500D01*
X69811446Y-68972885D01*
X69933010Y-68924947D01*
X70002596Y-68918665D01*
X70064533Y-68951002D01*
X70099154Y-69011690D01*
X70102500Y-69040301D01*
X70102500Y-69980002D01*
X70108338Y-70034312D01*
X70119543Y-70085818D01*
X70119546Y-70085827D01*
X70126779Y-70112192D01*
X70126783Y-70112203D01*
X70176105Y-70198818D01*
X70176110Y-70198825D01*
X70176112Y-70198828D01*
X70202580Y-70229374D01*
X70221863Y-70251628D01*
X70221866Y-70251631D01*
X70221867Y-70251632D01*
X70254641Y-70283257D01*
X70302978Y-70308542D01*
X70353254Y-70357055D01*
X70369500Y-70418415D01*
X70369500Y-70577679D01*
X70349815Y-70644718D01*
X70319813Y-70676944D01*
X70312459Y-70682449D01*
X70312451Y-70682457D01*
X70226206Y-70797664D01*
X70226202Y-70797671D01*
X70175908Y-70932517D01*
X70169501Y-70992116D01*
X70169501Y-70992123D01*
X70169500Y-70992135D01*
X70169500Y-71787870D01*
X70169501Y-71787876D01*
X70175908Y-71847483D01*
X70226202Y-71982328D01*
X70226206Y-71982335D01*
X70312452Y-72097544D01*
X70312455Y-72097547D01*
X70427664Y-72183793D01*
X70427671Y-72183797D01*
X70562517Y-72234091D01*
X70562516Y-72234091D01*
X70569444Y-72234835D01*
X70622127Y-72240500D01*
X71617872Y-72240499D01*
X71677483Y-72234091D01*
X71812331Y-72183796D01*
X71927546Y-72097546D01*
X72013796Y-71982331D01*
X72064091Y-71847483D01*
X72070500Y-71787873D01*
X72070499Y-70992128D01*
X72064091Y-70932517D01*
X72019716Y-70813542D01*
X72013797Y-70797671D01*
X72013793Y-70797664D01*
X71927548Y-70682457D01*
X71927546Y-70682454D01*
X71927542Y-70682451D01*
X71927540Y-70682449D01*
X71920187Y-70676944D01*
X71878317Y-70621009D01*
X71870500Y-70577679D01*
X71870500Y-70483500D01*
X71890185Y-70416461D01*
X71942989Y-70370706D01*
X71994500Y-70359500D01*
X74552000Y-70359500D01*
X74606313Y-70353661D01*
X74657824Y-70342455D01*
X74684198Y-70335219D01*
X74731051Y-70308539D01*
X74770818Y-70285894D01*
X74770819Y-70285892D01*
X74770828Y-70285888D01*
X74823632Y-70240133D01*
X74855257Y-70207359D01*
X74901465Y-70119024D01*
X74903470Y-70112198D01*
X74911215Y-70085818D01*
X74921150Y-70051985D01*
X74931500Y-69980000D01*
X74931500Y-67545500D01*
X74938694Y-67521000D01*
X79635337Y-67521000D01*
X80780000Y-67521000D01*
X81780000Y-67521000D01*
X82924662Y-67521000D01*
X82919386Y-67477057D01*
X82863920Y-67336404D01*
X82772564Y-67215935D01*
X82652095Y-67124579D01*
X82511443Y-67069113D01*
X82423054Y-67058500D01*
X81780000Y-67058500D01*
X81780000Y-67521000D01*
X80780000Y-67521000D01*
X80780000Y-67058500D01*
X80136946Y-67058500D01*
X80048556Y-67069113D01*
X79907904Y-67124579D01*
X79787435Y-67215935D01*
X79696079Y-67336404D01*
X79640613Y-67477057D01*
X79635337Y-67521000D01*
X74938694Y-67521000D01*
X74951185Y-67478461D01*
X75003989Y-67432706D01*
X75055500Y-67421500D01*
X78192975Y-67421500D01*
X78192983Y-67421499D01*
X78768150Y-67421499D01*
X78768162Y-67421499D01*
X78803627Y-67418709D01*
X78955390Y-67374618D01*
X79091420Y-67294170D01*
X79203170Y-67182420D01*
X79283618Y-67046390D01*
X79327709Y-66894627D01*
X79330500Y-66859163D01*
X79330499Y-66639163D01*
X79350183Y-66572125D01*
X79402987Y-66526370D01*
X79472145Y-66516426D01*
X79489434Y-66520186D01*
G37*
%TD.AperFunction*%
%TD*%
%TA.AperFunction,Conductor*%
%TO.N,/Vin*%
G36*
X83262539Y-58940185D02*
G01*
X83308294Y-58992989D01*
X83319500Y-59044500D01*
X83319500Y-66170000D01*
X83299815Y-66237039D01*
X83247011Y-66282794D01*
X83195500Y-66294000D01*
X79626000Y-66294000D01*
X79558961Y-66274315D01*
X79513206Y-66221511D01*
X79502000Y-66170000D01*
X79502000Y-65693399D01*
X79521685Y-65626360D01*
X79574489Y-65580605D01*
X79643647Y-65570661D01*
X79707203Y-65599686D01*
X79724804Y-65618474D01*
X79787433Y-65701063D01*
X79907904Y-65792420D01*
X80048556Y-65847886D01*
X80136946Y-65858500D01*
X80780000Y-65858500D01*
X81780000Y-65858500D01*
X82423054Y-65858500D01*
X82511443Y-65847886D01*
X82652095Y-65792420D01*
X82772564Y-65701064D01*
X82863920Y-65580595D01*
X82919386Y-65439942D01*
X82924663Y-65396000D01*
X81780000Y-65396000D01*
X81780000Y-65858500D01*
X80780000Y-65858500D01*
X80780000Y-65396000D01*
X79626000Y-65396000D01*
X79558961Y-65376315D01*
X79513206Y-65323511D01*
X79503668Y-65279668D01*
X79502000Y-65278000D01*
X79160982Y-65278000D01*
X79093943Y-65258315D01*
X79048188Y-65205511D01*
X79038244Y-65136353D01*
X79067269Y-65072797D01*
X79096833Y-65047883D01*
X79124338Y-65031255D01*
X79124342Y-65031252D01*
X79240252Y-64915342D01*
X79240256Y-64915337D01*
X79325053Y-64775064D01*
X79325054Y-64775062D01*
X79373062Y-64621000D01*
X76786938Y-64621000D01*
X76834945Y-64775062D01*
X76834946Y-64775064D01*
X76919743Y-64915337D01*
X76919747Y-64915342D01*
X77035657Y-65031252D01*
X77035661Y-65031255D01*
X77063167Y-65047883D01*
X77110355Y-65099410D01*
X77122194Y-65168269D01*
X77094926Y-65232598D01*
X77037208Y-65271973D01*
X76999018Y-65278000D01*
X75308000Y-65278000D01*
X75240961Y-65258315D01*
X75195206Y-65205511D01*
X75184000Y-65154000D01*
X75184000Y-64396000D01*
X79635337Y-64396000D01*
X80780000Y-64396000D01*
X81780000Y-64396000D01*
X82924662Y-64396000D01*
X82919386Y-64352057D01*
X82863920Y-64211404D01*
X82772564Y-64090935D01*
X82652095Y-63999579D01*
X82511443Y-63944113D01*
X82423054Y-63933500D01*
X81780000Y-63933500D01*
X81780000Y-64396000D01*
X80780000Y-64396000D01*
X80780000Y-63933500D01*
X80136946Y-63933500D01*
X80048556Y-63944113D01*
X79907904Y-63999579D01*
X79787435Y-64090935D01*
X79696079Y-64211404D01*
X79640613Y-64352057D01*
X79635337Y-64396000D01*
X75184000Y-64396000D01*
X75184000Y-63620999D01*
X76786937Y-63620999D01*
X76786938Y-63621000D01*
X77580000Y-63621000D01*
X78580000Y-63621000D01*
X79373062Y-63621000D01*
X79373062Y-63620999D01*
X79325054Y-63466937D01*
X79325053Y-63466935D01*
X79240256Y-63326662D01*
X79240252Y-63326657D01*
X79124342Y-63210747D01*
X79124337Y-63210743D01*
X78984065Y-63125947D01*
X78827562Y-63077179D01*
X78759556Y-63071000D01*
X78580000Y-63071000D01*
X78580000Y-63621000D01*
X77580000Y-63621000D01*
X77580000Y-63071000D01*
X77400433Y-63071000D01*
X77332438Y-63077178D01*
X77332427Y-63077181D01*
X77175939Y-63125944D01*
X77175935Y-63125946D01*
X77035662Y-63210743D01*
X77035657Y-63210747D01*
X76919747Y-63326657D01*
X76919743Y-63326662D01*
X76834946Y-63466935D01*
X76834945Y-63466937D01*
X76786937Y-63620999D01*
X75184000Y-63620999D01*
X75184000Y-61854785D01*
X80130001Y-61854785D01*
X80130002Y-61854808D01*
X80132908Y-61879869D01*
X80132909Y-61879873D01*
X80178211Y-61982474D01*
X80178214Y-61982479D01*
X80257520Y-62061785D01*
X80257525Y-62061788D01*
X80360123Y-62107089D01*
X80385206Y-62109999D01*
X80779999Y-62109999D01*
X81780000Y-62109999D01*
X82174786Y-62109999D01*
X82174808Y-62109997D01*
X82199869Y-62107091D01*
X82199873Y-62107090D01*
X82302474Y-62061788D01*
X82302479Y-62061785D01*
X82381785Y-61982479D01*
X82381788Y-61982474D01*
X82427089Y-61879877D01*
X82427089Y-61879875D01*
X82429999Y-61854794D01*
X82430000Y-61854791D01*
X82430000Y-61460000D01*
X81780000Y-61460000D01*
X81780000Y-62109999D01*
X80779999Y-62109999D01*
X80780000Y-62109998D01*
X80780000Y-61460000D01*
X80130001Y-61460000D01*
X80130001Y-61854785D01*
X75184000Y-61854785D01*
X75184000Y-60894174D01*
X80780000Y-60894174D01*
X80780000Y-61025826D01*
X80814075Y-61152993D01*
X80879901Y-61267007D01*
X80972993Y-61360099D01*
X81087007Y-61425925D01*
X81214174Y-61460000D01*
X81345826Y-61460000D01*
X81472993Y-61425925D01*
X81587007Y-61360099D01*
X81680099Y-61267007D01*
X81745925Y-61152993D01*
X81780000Y-61025826D01*
X81780000Y-60894174D01*
X81745925Y-60767007D01*
X81680099Y-60652993D01*
X81587007Y-60559901D01*
X81472993Y-60494075D01*
X81345826Y-60460000D01*
X81780000Y-60460000D01*
X82429999Y-60460000D01*
X82429999Y-60065214D01*
X82429997Y-60065191D01*
X82427091Y-60040130D01*
X82427090Y-60040126D01*
X82381788Y-59937525D01*
X82381785Y-59937520D01*
X82302479Y-59858214D01*
X82302474Y-59858211D01*
X82199876Y-59812910D01*
X82174794Y-59810000D01*
X81780000Y-59810000D01*
X81780000Y-60460000D01*
X81345826Y-60460000D01*
X81214174Y-60460000D01*
X81087007Y-60494075D01*
X80972993Y-60559901D01*
X80879901Y-60652993D01*
X80814075Y-60767007D01*
X80780000Y-60894174D01*
X75184000Y-60894174D01*
X75184000Y-60065205D01*
X80130000Y-60065205D01*
X80130000Y-60460000D01*
X80780000Y-60460000D01*
X80780000Y-59810000D01*
X80385214Y-59810000D01*
X80385191Y-59810002D01*
X80360130Y-59812908D01*
X80360126Y-59812909D01*
X80257525Y-59858211D01*
X80257520Y-59858214D01*
X80178214Y-59937520D01*
X80178211Y-59937525D01*
X80132910Y-60040122D01*
X80132910Y-60040124D01*
X80130000Y-60065205D01*
X75184000Y-60065205D01*
X75184000Y-59044500D01*
X75203685Y-58977461D01*
X75256489Y-58931706D01*
X75308000Y-58920500D01*
X83195500Y-58920500D01*
X83262539Y-58940185D01*
G37*
%TD.AperFunction*%
%TD*%
%TA.AperFunction,Conductor*%
%TO.N,/Vout*%
G36*
X74619039Y-58940185D02*
G01*
X74664794Y-58992989D01*
X74676000Y-59044500D01*
X74676000Y-69980000D01*
X74656315Y-70047039D01*
X74603511Y-70092794D01*
X74552000Y-70104000D01*
X70482000Y-70104000D01*
X70414961Y-70084315D01*
X70369206Y-70031511D01*
X70358000Y-69980000D01*
X70358000Y-68287727D01*
X70377685Y-68220688D01*
X70430489Y-68174933D01*
X70499647Y-68164989D01*
X70563203Y-68194014D01*
X70586994Y-68221755D01*
X70650577Y-68322948D01*
X70778051Y-68450422D01*
X70930698Y-68546336D01*
X71100858Y-68605877D01*
X71235069Y-68620999D01*
X71235070Y-68621000D01*
X71280000Y-68621000D01*
X72280000Y-68621000D01*
X72324930Y-68621000D01*
X72324930Y-68620999D01*
X72459141Y-68605877D01*
X72629301Y-68546336D01*
X72781948Y-68450422D01*
X72909422Y-68322948D01*
X73005336Y-68170301D01*
X73064877Y-68000141D01*
X73079999Y-67865930D01*
X73080000Y-67865930D01*
X73080000Y-66921000D01*
X72280000Y-66921000D01*
X72280000Y-68621000D01*
X71280000Y-68621000D01*
X71280000Y-66921000D01*
X70482000Y-66921000D01*
X70414961Y-66901315D01*
X70369206Y-66848511D01*
X70359390Y-66803390D01*
X70358000Y-66802000D01*
X66664500Y-66802000D01*
X66597461Y-66782315D01*
X66551706Y-66729511D01*
X66540500Y-66678000D01*
X66540500Y-65396000D01*
X66935337Y-65396000D01*
X66940613Y-65439942D01*
X66996079Y-65580595D01*
X67087435Y-65701064D01*
X67207904Y-65792420D01*
X67348556Y-65847886D01*
X67436946Y-65858500D01*
X68080000Y-65858500D01*
X69080000Y-65858500D01*
X69723054Y-65858500D01*
X69811443Y-65847886D01*
X69952095Y-65792420D01*
X70072564Y-65701064D01*
X70163920Y-65580595D01*
X70219386Y-65439942D01*
X70224663Y-65396000D01*
X69080000Y-65396000D01*
X69080000Y-65858500D01*
X68080000Y-65858500D01*
X68080000Y-65396000D01*
X66935337Y-65396000D01*
X66540500Y-65396000D01*
X66540500Y-64976069D01*
X70480000Y-64976069D01*
X70480000Y-65921000D01*
X71280000Y-65921000D01*
X72280000Y-65921000D01*
X73080000Y-65921000D01*
X73080000Y-64976070D01*
X73079999Y-64976069D01*
X73064877Y-64841858D01*
X73005336Y-64671698D01*
X72909422Y-64519051D01*
X72781948Y-64391577D01*
X72629301Y-64295663D01*
X72459141Y-64236122D01*
X72324930Y-64221000D01*
X72280000Y-64221000D01*
X72280000Y-65921000D01*
X71280000Y-65921000D01*
X71280000Y-64221000D01*
X71235070Y-64221000D01*
X71100858Y-64236122D01*
X70930698Y-64295663D01*
X70778051Y-64391577D01*
X70650577Y-64519051D01*
X70554663Y-64671698D01*
X70495122Y-64841858D01*
X70480000Y-64976069D01*
X66540500Y-64976069D01*
X66540500Y-64396000D01*
X66935337Y-64396000D01*
X68080000Y-64396000D01*
X69080000Y-64396000D01*
X70224662Y-64396000D01*
X70219386Y-64352057D01*
X70163920Y-64211404D01*
X70072564Y-64090935D01*
X69952095Y-63999579D01*
X69811443Y-63944113D01*
X69723054Y-63933500D01*
X69080000Y-63933500D01*
X69080000Y-64396000D01*
X68080000Y-64396000D01*
X68080000Y-63933500D01*
X67436946Y-63933500D01*
X67348556Y-63944113D01*
X67207904Y-63999579D01*
X67087435Y-64090935D01*
X66996079Y-64211404D01*
X66940613Y-64352057D01*
X66935337Y-64396000D01*
X66540500Y-64396000D01*
X66540500Y-61854785D01*
X67430001Y-61854785D01*
X67430002Y-61854808D01*
X67432908Y-61879869D01*
X67432909Y-61879873D01*
X67478211Y-61982474D01*
X67478214Y-61982479D01*
X67557520Y-62061785D01*
X67557525Y-62061788D01*
X67660123Y-62107089D01*
X67685206Y-62109999D01*
X68079999Y-62109999D01*
X69080000Y-62109999D01*
X69474786Y-62109999D01*
X69474808Y-62109997D01*
X69499869Y-62107091D01*
X69499873Y-62107090D01*
X69602474Y-62061788D01*
X69602479Y-62061785D01*
X69681785Y-61982479D01*
X69681788Y-61982474D01*
X69727089Y-61879877D01*
X69727089Y-61879875D01*
X69729999Y-61854794D01*
X69730000Y-61854791D01*
X69730000Y-61460000D01*
X69080000Y-61460000D01*
X69080000Y-62109999D01*
X68079999Y-62109999D01*
X68080000Y-62109998D01*
X68080000Y-61460000D01*
X67430001Y-61460000D01*
X67430001Y-61854785D01*
X66540500Y-61854785D01*
X66540500Y-60894174D01*
X68080000Y-60894174D01*
X68080000Y-61025826D01*
X68114075Y-61152993D01*
X68179901Y-61267007D01*
X68272993Y-61360099D01*
X68387007Y-61425925D01*
X68514174Y-61460000D01*
X68645826Y-61460000D01*
X68772993Y-61425925D01*
X68887007Y-61360099D01*
X68980099Y-61267007D01*
X69045925Y-61152993D01*
X69080000Y-61025826D01*
X69080000Y-60894174D01*
X69045925Y-60767007D01*
X68980099Y-60652993D01*
X68887007Y-60559901D01*
X68772993Y-60494075D01*
X68645826Y-60460000D01*
X69080000Y-60460000D01*
X69729999Y-60460000D01*
X69729999Y-60065214D01*
X69729997Y-60065191D01*
X69727091Y-60040130D01*
X69727090Y-60040126D01*
X69681788Y-59937525D01*
X69681785Y-59937520D01*
X69602479Y-59858214D01*
X69602474Y-59858211D01*
X69499876Y-59812910D01*
X69474794Y-59810000D01*
X69080000Y-59810000D01*
X69080000Y-60460000D01*
X68645826Y-60460000D01*
X68514174Y-60460000D01*
X68387007Y-60494075D01*
X68272993Y-60559901D01*
X68179901Y-60652993D01*
X68114075Y-60767007D01*
X68080000Y-60894174D01*
X66540500Y-60894174D01*
X66540500Y-60065205D01*
X67430000Y-60065205D01*
X67430000Y-60460000D01*
X68080000Y-60460000D01*
X68080000Y-59810000D01*
X67685214Y-59810000D01*
X67685191Y-59810002D01*
X67660130Y-59812908D01*
X67660126Y-59812909D01*
X67557525Y-59858211D01*
X67557520Y-59858214D01*
X67478214Y-59937520D01*
X67478211Y-59937525D01*
X67432910Y-60040122D01*
X67432910Y-60040124D01*
X67430000Y-60065205D01*
X66540500Y-60065205D01*
X66540500Y-59044500D01*
X66560185Y-58977461D01*
X66612989Y-58931706D01*
X66664500Y-58920500D01*
X74552000Y-58920500D01*
X74619039Y-58940185D01*
G37*
%TD.AperFunction*%
%TD*%
M02*
